# -*- coding: utf-8 -*-
"""
Created on Fri Jan 15 20:46:31 2021

@author: python
"""


#下面是打开 DY_kanong.midi文件,输出的每个动作
'''
runfile('D:/1论文/论文不断修改版本/2019.03.18/1010/program/090622/DY_read_midi_0.py', wdir='D:/1论文/论文不断修改版本/2019.03.18/1010/program/090622')
Track 0: 
<meta message set_tempo tempo=857143 time=0>   # 注意这里的曲速是857143,默认的不是这个,需要修改.但是好像也没有解决问题???
<meta message time_signature numerator=4 denominator=4 clocks_per_click=24 notated_32nd_notes_per_beat=8 time=0>
control_change channel=0 control=7 value=255 time=0
control_change channel=1 control=7 value=255 time=0
control_change channel=2 control=7 value=255 time=0
control_change channel=3 control=7 value=255 time=0
control_change channel=4 control=7 value=255 time=0
control_change channel=5 control=7 value=255 time=0
control_change channel=6 control=7 value=255 time=0
control_change channel=7 control=7 value=255 time=0
control_change channel=8 control=7 value=255 time=0
control_change channel=9 control=7 value=255 time=0
control_change channel=10 control=7 value=255 time=0
control_change channel=11 control=7 value=255 time=0
control_change channel=12 control=7 value=255 time=0
control_change channel=13 control=7 value=255 time=0
control_change channel=14 control=7 value=255 time=0
control_change channel=15 control=7 value=255 time=0
<meta message end_of_track time=0>
Track 1: Sound 1 1

####注意到了吗?,每个动作中, "note_on" 的时间参数都是0,几乎都是0
####松开 "note_off" 才会有时间参数.

<meta message track_name name='Sound 1 1' time=0>

note_on channel=0 note=64 velocity=40 time=0    #第一个音
note_off channel=0 note=64 velocity=64 time=192

note_on channel=0 note=59 velocity=39 time=0    #第二个音
note_off channel=0 note=59 velocity=64 time=192

note_on channel=0 note=60 velocity=39 time=0    # 第三个音
note_off channel=0 note=60 velocity=64 time=192

note_on channel=0 note=59 velocity=41 time=0    # 第四个音,这里比较特殊,是和弦.
note_on channel=0 note=55 velocity=41 time=0
note_off channel=0 note=59 velocity=64 time=192
note_off channel=0 note=55 velocity=64 time=0

note_on channel=0 note=57 velocity=42 time=0   # 第5个音,这里也是和弦,且中断的时候不一样.
note_on channel=0 note=53 velocity=37 time=0
note_off channel=0 note=53 velocity=64 time=172
note_off channel=0 note=57 velocity=64 time=20

note_on channel=0 note=60 velocity=61 time=0
note_on channel=0 note=52 velocity=40 time=0
note_off channel=0 note=52 velocity=64 time=172
note_off channel=0 note=60 velocity=64 time=20
note_on channel=0 note=57 velocity=40 time=0
note_on channel=0 note=53 velocity=35 time=0
note_off channel=0 note=53 velocity=64 time=172
note_off channel=0 note=57 velocity=64 time=20
note_on channel=0 note=59 velocity=42 time=0
note_on channel=0 note=55 velocity=36 time=0
note_off channel=0 note=55 velocity=64 time=172
note_off channel=0 note=59 velocity=64 time=20
note_on channel=0 note=64 velocity=54 time=0
note_on channel=0 note=72 velocity=54 time=0
note_on channel=0 note=76 velocity=54 time=0
note_off channel=0 note=64 velocity=64 time=172
note_off channel=0 note=72 velocity=64 time=0
note_off channel=0 note=76 velocity=64 time=0
note_on channel=0 note=67 velocity=44 time=20
note_on channel=0 note=71 velocity=56 time=0
note_on channel=0 note=74 velocity=56 time=0
note_off channel=0 note=67 velocity=64 time=192
note_off channel=0 note=71 velocity=64 time=0
note_off channel=0 note=74 velocity=64 time=0
note_on channel=0 note=72 velocity=56 time=0
note_on channel=0 note=69 velocity=56 time=0
note_on channel=0 note=64 velocity=49 time=0
note_off channel=0 note=72 velocity=64 time=192
note_off channel=0 note=69 velocity=64 time=0
note_off channel=0 note=64 velocity=64 time=0
note_on channel=0 note=71 velocity=57 time=0
note_on channel=0 note=67 velocity=57 time=0
note_on channel=0 note=64 velocity=52 time=0
note_off channel=0 note=71 velocity=64 time=192
note_off channel=0 note=67 velocity=64 time=0
note_off channel=0 note=64 velocity=64 time=0
note_on channel=0 note=69 velocity=57 time=0
note_on channel=0 note=65 velocity=57 time=0
note_on channel=0 note=60 velocity=57 time=0
note_on channel=0 note=41 velocity=100 time=160
note_off channel=0 note=69 velocity=64 time=32
note_off channel=0 note=65 velocity=64 time=0
note_off channel=0 note=60 velocity=64 time=0
note_on channel=0 note=67 velocity=59 time=0
note_on channel=0 note=64 velocity=59 time=0
note_on channel=0 note=60 velocity=59 time=0
note_off channel=0 note=41 velocity=64 time=16
note_off channel=0 note=67 velocity=64 time=176
note_off channel=0 note=64 velocity=64 time=0
note_off channel=0 note=60 velocity=64 time=0
note_on channel=0 note=69 velocity=58 time=0
note_on channel=0 note=65 velocity=58 time=0
note_on channel=0 note=60 velocity=58 time=0
note_off channel=0 note=69 velocity=64 time=192
note_off channel=0 note=65 velocity=64 time=0
note_off channel=0 note=60 velocity=64 time=0
note_on channel=0 note=71 velocity=56 time=0
note_on channel=0 note=65 velocity=56 time=0
note_on channel=0 note=62 velocity=56 time=0
note_off channel=0 note=71 velocity=64 time=192
note_off channel=0 note=65 velocity=64 time=0
note_off channel=0 note=62 velocity=64 time=0
note_on channel=0 note=64 velocity=63 time=0
note_on channel=0 note=72 velocity=63 time=0
note_on channel=0 note=76 velocity=63 time=0
note_off channel=0 note=64 velocity=64 time=192
note_off channel=0 note=72 velocity=64 time=0
note_off channel=0 note=76 velocity=64 time=0
note_on channel=0 note=67 velocity=70 time=0
note_on channel=0 note=71 velocity=70 time=0
note_on channel=0 note=74 velocity=70 time=0
note_on channel=0 note=65 velocity=59 time=96
note_off channel=0 note=67 velocity=64 time=96
note_off channel=0 note=71 velocity=64 time=0
note_off channel=0 note=74 velocity=64 time=0
note_off channel=0 note=65 velocity=64 time=0
note_on channel=0 note=72 velocity=64 time=0
note_on channel=0 note=69 velocity=64 time=0
note_on channel=0 note=64 velocity=64 time=0
note_off channel=0 note=72 velocity=64 time=192
note_off channel=0 note=69 velocity=64 time=0
note_off channel=0 note=64 velocity=64 time=0
note_on channel=0 note=71 velocity=67 time=0
note_on channel=0 note=67 velocity=67 time=0
note_on channel=0 note=64 velocity=67 time=0
note_on channel=0 note=62 velocity=58 time=96
note_off channel=0 note=71 velocity=64 time=96
note_off channel=0 note=67 velocity=64 time=0
note_off channel=0 note=64 velocity=64 time=0
note_off channel=0 note=62 velocity=64 time=0
note_on channel=0 note=69 velocity=67 time=0
note_on channel=0 note=65 velocity=67 time=0
note_on channel=0 note=60 velocity=67 time=0
note_off channel=0 note=69 velocity=64 time=192
note_off channel=0 note=65 velocity=64 time=0
note_off channel=0 note=60 velocity=64 time=0
note_on channel=0 note=67 velocity=64 time=0
note_on channel=0 note=64 velocity=64 time=0
note_on channel=0 note=60 velocity=64 time=0
note_on channel=0 note=64 velocity=59 time=96
note_off channel=0 note=67 velocity=64 time=96
note_off channel=0 note=64 velocity=64 time=0
note_off channel=0 note=60 velocity=64 time=0
note_off channel=0 note=64 velocity=64 time=0
note_on channel=0 note=69 velocity=67 time=0
note_on channel=0 note=65 velocity=67 time=0
note_on channel=0 note=62 velocity=67 time=0
note_off channel=0 note=69 velocity=64 time=192
note_off channel=0 note=65 velocity=64 time=0
note_off channel=0 note=62 velocity=64 time=0
note_on channel=0 note=71 velocity=63 time=0
note_on channel=0 note=67 velocity=63 time=0
note_on channel=0 note=62 velocity=63 time=0
note_on channel=0 note=65 velocity=60 time=96
note_off channel=0 note=71 velocity=64 time=96
note_off channel=0 note=67 velocity=64 time=0
note_off channel=0 note=62 velocity=64 time=0
note_off channel=0 note=65 velocity=64 time=0
note_on channel=0 note=64 velocity=77 time=0
note_on channel=0 note=72 velocity=77 time=0
note_off channel=0 note=64 velocity=64 time=172
note_off channel=0 note=72 velocity=64 time=0
note_on channel=0 note=71 velocity=67 time=20
note_on channel=0 note=67 velocity=67 time=0
note_on channel=0 note=65 velocity=78 time=96
note_off channel=0 note=71 velocity=64 time=96
note_off channel=0 note=67 velocity=64 time=0
note_off channel=0 note=65 velocity=64 time=0
note_on channel=0 note=64 velocity=67 time=0
note_on channel=0 note=72 velocity=67 time=0
note_on channel=0 note=42 velocity=100 time=92
note_off channel=0 note=64 velocity=64 time=4
note_off channel=0 note=72 velocity=64 time=0
note_on channel=0 note=69 velocity=75 time=0
note_on channel=0 note=76 velocity=75 time=0
note_off channel=0 note=42 velocity=64 time=44
note_off channel=0 note=69 velocity=64 time=52
note_off channel=0 note=76 velocity=64 time=0
note_on channel=0 note=71 velocity=76 time=0
note_on channel=0 note=79 velocity=76 time=0
note_off channel=0 note=71 velocity=64 time=96
note_off channel=0 note=79 velocity=64 time=0
note_on channel=0 note=74 velocity=69 time=0
note_on channel=0 note=81 velocity=69 time=0
note_off channel=0 note=74 velocity=64 time=96
note_off channel=0 note=81 velocity=64 time=0
note_on channel=0 note=69 velocity=75 time=0
note_on channel=0 note=77 velocity=75 time=0
note_off channel=0 note=69 velocity=64 time=96
note_off channel=0 note=77 velocity=64 time=0
note_on channel=0 note=72 velocity=65 time=0
note_off channel=0 note=72 velocity=64 time=96
note_on channel=0 note=67 velocity=78 time=0
note_on channel=0 note=76 velocity=78 time=0
note_off channel=0 note=67 velocity=64 time=96
note_off channel=0 note=76 velocity=64 time=0
note_on channel=0 note=64 velocity=62 time=0
note_off channel=0 note=64 velocity=64 time=86
note_on channel=0 note=65 velocity=66 time=10
note_on channel=0 note=62 velocity=66 time=0
note_off channel=0 note=65 velocity=64 time=96
note_off channel=0 note=62 velocity=64 time=0
note_on channel=0 note=69 velocity=76 time=0
note_on channel=0 note=72 velocity=76 time=0
note_off channel=0 note=69 velocity=64 time=96
note_off channel=0 note=72 velocity=64 time=0
note_on channel=0 note=67 velocity=71 time=0
note_on channel=0 note=72 velocity=71 time=0
note_off channel=0 note=67 velocity=64 time=96
note_off channel=0 note=72 velocity=64 time=0
note_on channel=0 note=72 velocity=80 time=0
note_on channel=0 note=65 velocity=80 time=0
note_off channel=0 note=72 velocity=64 time=48
note_off channel=0 note=65 velocity=64 time=0
note_on channel=0 note=71 velocity=70 time=0
note_off channel=0 note=71 velocity=64 time=48
note_on channel=0 note=72 velocity=74 time=0
note_on channel=0 note=64 velocity=74 time=0
note_off channel=0 note=72 velocity=64 time=48
note_off channel=0 note=64 velocity=64 time=0
note_on channel=0 note=71 velocity=72 time=0
note_off channel=0 note=71 velocity=64 time=48
note_on channel=0 note=72 velocity=71 time=0
note_off channel=0 note=72 velocity=64 time=48
note_on channel=0 note=64 velocity=76 time=0
note_off channel=0 note=64 velocity=64 time=48
note_on channel=0 note=67 velocity=75 time=0
note_on channel=0 note=59 velocity=75 time=0
note_off channel=0 note=59 velocity=64 time=48
note_off channel=0 note=67 velocity=64 time=48
note_on channel=0 note=71 velocity=81 time=0
note_on channel=0 note=65 velocity=81 time=0
note_on channel=0 note=64 velocity=80 time=85
note_off channel=0 note=71 velocity=64 time=11
note_off channel=0 note=65 velocity=64 time=0
note_on channel=0 note=72 velocity=86 time=0
note_off channel=0 note=64 velocity=64 time=75
note_off channel=0 note=72 velocity=64 time=11
note_on channel=0 note=69 velocity=87 time=10
note_on channel=0 note=76 velocity=87 time=0
note_off channel=0 note=69 velocity=64 time=96
note_off channel=0 note=76 velocity=64 time=0
note_on channel=0 note=71 velocity=78 time=0
note_on channel=0 note=79 velocity=78 time=0
note_off channel=0 note=71 velocity=64 time=48
note_off channel=0 note=79 velocity=64 time=0
note_on channel=0 note=76 velocity=78 time=0
note_off channel=0 note=76 velocity=64 time=48
note_on channel=0 note=74 velocity=78 time=0
note_on channel=0 note=79 velocity=78 time=0
note_off channel=0 note=74 velocity=64 time=48
note_off channel=0 note=79 velocity=64 time=0
note_on channel=0 note=81 velocity=75 time=0
note_off channel=0 note=81 velocity=64 time=48
note_on channel=0 note=69 velocity=83 time=0
note_on channel=0 note=77 velocity=83 time=0
note_off channel=0 note=69 velocity=64 time=43
note_off channel=0 note=77 velocity=64 time=0
note_on channel=0 note=76 velocity=73 time=5
note_off channel=0 note=76 velocity=64 time=43
note_on channel=0 note=74 velocity=74 time=5
note_off channel=0 note=74 velocity=64 time=43
note_on channel=0 note=77 velocity=73 time=5
note_off channel=0 note=77 velocity=64 time=43
note_on channel=0 note=67 velocity=87 time=5
note_on channel=0 note=76 velocity=87 time=0
note_off channel=0 note=67 velocity=64 time=43
note_off channel=0 note=76 velocity=64 time=0
note_on channel=0 note=74 velocity=77 time=5
note_off channel=0 note=74 velocity=64 time=43
note_on channel=0 note=72 velocity=73 time=5
note_off channel=0 note=72 velocity=64 time=43
note_on channel=0 note=49 velocity=100 time=5
note_on channel=0 note=71 velocity=71 time=0
note_off channel=0 note=49 velocity=64 time=48
note_off channel=0 note=71 velocity=64 time=0
note_on channel=0 note=69 velocity=69 time=0
note_on channel=0 note=65 velocity=69 time=0
note_off channel=0 note=69 velocity=64 time=48
note_off channel=0 note=65 velocity=64 time=0
note_on channel=0 note=65 velocity=67 time=0
note_on channel=0 note=62 velocity=67 time=0
note_off channel=0 note=65 velocity=64 time=48
note_off channel=0 note=62 velocity=64 time=0
note_on channel=0 note=69 velocity=74 time=0
note_on channel=0 note=72 velocity=74 time=0
note_off channel=0 note=69 velocity=64 time=96
note_off channel=0 note=72 velocity=64 time=0
note_on channel=0 note=72 velocity=80 time=0
note_on channel=0 note=67 velocity=80 time=0
note_off channel=0 note=67 velocity=64 time=48
note_on channel=0 note=65 velocity=74 time=0
note_off channel=0 note=72 velocity=64 time=48
note_off channel=0 note=65 velocity=64 time=0
note_on channel=0 note=72 velocity=90 time=0
note_on channel=0 note=64 velocity=90 time=0
note_off channel=0 note=72 velocity=64 time=48
note_off channel=0 note=64 velocity=64 time=0
note_on channel=0 note=71 velocity=77 time=0
note_on channel=0 note=62 velocity=77 time=0
note_off channel=0 note=71 velocity=64 time=48
note_off channel=0 note=62 velocity=64 time=0
note_on channel=0 note=72 velocity=83 time=0
note_on channel=0 note=64 velocity=83 time=0
note_off channel=0 note=72 velocity=64 time=48
note_off channel=0 note=64 velocity=64 time=0
note_on channel=0 note=71 velocity=68 time=0
note_off channel=0 note=71 velocity=64 time=48
note_on channel=0 note=72 velocity=74 time=0
note_off channel=0 note=72 velocity=64 time=48
note_on channel=0 note=65 velocity=80 time=0
note_off channel=0 note=65 velocity=64 time=48
note_on channel=0 note=67 velocity=75 time=0
note_on channel=0 note=60 velocity=75 time=0
note_off channel=0 note=60 velocity=64 time=48
note_on channel=0 note=59 velocity=80 time=0
note_off channel=0 note=67 velocity=64 time=48
note_off channel=0 note=59 velocity=64 time=0
note_on channel=0 note=71 velocity=84 time=0
note_on channel=0 note=67 velocity=84 time=0
note_off channel=0 note=71 velocity=64 time=48
note_off channel=0 note=67 velocity=64 time=0
note_on channel=0 note=65 velocity=89 time=0
note_off channel=0 note=65 velocity=64 time=48
note_on channel=0 note=64 velocity=92 time=0
note_on channel=0 note=72 velocity=92 time=0
note_off channel=0 note=64 velocity=64 time=96
note_off channel=0 note=72 velocity=64 time=0
note_on channel=0 note=69 velocity=101 time=0
note_on channel=0 note=76 velocity=101 time=0
note_off channel=0 note=69 velocity=64 time=48
note_off channel=0 note=76 velocity=64 time=0
note_on channel=0 note=72 velocity=76 time=0
note_off channel=0 note=72 velocity=64 time=48
note_on channel=0 note=71 velocity=95 time=0
note_on channel=0 note=79 velocity=100 time=0
note_off channel=0 note=71 velocity=64 time=48
note_off channel=0 note=79 velocity=64 time=0
note_on channel=0 note=76 velocity=83 time=0
note_off channel=0 note=76 velocity=64 time=48
note_on channel=0 note=74 velocity=95 time=0
note_on channel=0 note=79 velocity=95 time=0
note_off channel=0 note=74 velocity=64 time=48
note_off channel=0 note=79 velocity=64 time=0
note_on channel=0 note=81 velocity=81 time=0
note_off channel=0 note=81 velocity=64 time=48
note_on channel=0 note=69 velocity=95 time=0
note_on channel=0 note=72 velocity=95 time=0
note_on channel=0 note=77 velocity=95 time=0
note_off channel=0 note=69 velocity=64 time=48
note_off channel=0 note=72 velocity=64 time=0
note_off channel=0 note=77 velocity=64 time=0
note_on channel=0 note=76 velocity=84 time=0
note_off channel=0 note=76 velocity=64 time=48
note_on channel=0 note=74 velocity=91 time=0
note_off channel=0 note=74 velocity=64 time=48
note_on channel=0 note=77 velocity=81 time=0
note_on channel=0 note=67 velocity=90 time=46
note_off channel=0 note=77 velocity=64 time=2
note_on channel=0 note=72 velocity=95 time=0
note_on channel=0 note=76 velocity=100 time=3
note_off channel=0 note=67 velocity=64 time=43
note_off channel=0 note=72 velocity=64 time=2
note_on channel=0 note=71 velocity=79 time=0
note_on channel=0 note=74 velocity=79 time=0
note_off channel=0 note=76 velocity=64 time=3
note_off channel=0 note=71 velocity=64 time=45
note_off channel=0 note=74 velocity=64 time=0
note_on channel=0 note=69 velocity=73 time=0
note_on channel=0 note=72 velocity=73 time=0
note_off channel=0 note=69 velocity=64 time=48
note_off channel=0 note=72 velocity=64 time=0
note_on channel=0 note=67 velocity=69 time=0
note_on channel=0 note=71 velocity=69 time=0
note_off channel=0 note=67 velocity=64 time=48
note_off channel=0 note=71 velocity=64 time=0
note_on channel=0 note=69 velocity=75 time=0
note_on channel=0 note=65 velocity=75 time=0
note_off channel=0 note=69 velocity=64 time=48
note_off channel=0 note=65 velocity=64 time=0
note_on channel=0 note=67 velocity=80 time=0
note_on channel=0 note=64 velocity=80 time=0
note_off channel=0 note=67 velocity=64 time=48
note_off channel=0 note=64 velocity=64 time=0
note_on channel=0 note=65 velocity=84 time=0
note_on channel=0 note=62 velocity=84 time=0
note_off channel=0 note=65 velocity=64 time=48
note_off channel=0 note=62 velocity=64 time=0
note_on channel=0 note=72 velocity=82 time=0
note_off channel=0 note=72 velocity=64 time=48
note_on channel=0 note=72 velocity=69 time=0
note_on channel=0 note=67 velocity=69 time=0
note_off channel=0 note=72 velocity=64 time=72
note_off channel=0 note=67 velocity=64 time=0
note_on channel=0 note=62 velocity=67 time=0
note_off channel=0 note=62 velocity=64 time=24
note_on channel=0 note=71 velocity=83 time=0
note_off channel=0 note=71 velocity=64 time=48
note_on channel=0 note=74 velocity=95 time=0
note_off channel=0 note=74 velocity=64 time=24
note_on channel=0 note=67 velocity=77 time=0
note_off channel=0 note=67 velocity=64 time=24
note_on channel=0 note=67 velocity=84 time=0
note_on channel=0 note=76 velocity=84 time=0
note_off channel=0 note=67 velocity=64 time=72
note_off channel=0 note=76 velocity=64 time=0
note_on channel=0 note=67 velocity=72 time=0
note_on channel=0 note=74 velocity=80 time=21
note_off channel=0 note=67 velocity=64 time=3
note_on channel=0 note=76 velocity=80 time=0
note_off channel=0 note=76 velocity=64 time=43
note_off channel=0 note=74 velocity=64 time=5
note_on channel=0 note=67 velocity=80 time=0
note_on channel=0 note=72 velocity=84 time=0
note_off channel=0 note=67 velocity=64 time=21
note_off channel=0 note=72 velocity=64 time=0
note_on channel=0 note=67 velocity=97 time=3
note_on channel=0 note=74 velocity=97 time=0
note_off channel=0 note=74 velocity=64 time=45
note_on channel=0 note=74 velocity=80 time=3
note_off channel=0 note=67 velocity=64 time=43
note_off channel=0 note=74 velocity=64 time=0
note_on channel=0 note=67 velocity=78 time=5
note_on channel=0 note=76 velocity=78 time=0
note_off channel=0 note=67 velocity=64 time=21
note_on channel=0 note=76 velocity=80 time=0
note_off channel=0 note=76 velocity=64 time=1
note_on channel=0 note=67 velocity=97 time=2
note_on channel=0 note=77 velocity=97 time=0
note_off channel=0 note=67 velocity=64 time=21
note_off channel=0 note=77 velocity=64 time=0
note_off channel=0 note=76 velocity=64 time=3
note_on channel=0 note=67 velocity=80 time=0
note_on channel=0 note=76 velocity=95 time=0
note_off channel=0 note=67 velocity=64 time=21
note_off channel=0 note=76 velocity=64 time=0
note_on channel=0 note=74 velocity=84 time=3
note_off channel=0 note=74 velocity=64 time=21
note_on channel=0 note=64 velocity=72 time=3
note_off channel=0 note=64 velocity=64 time=24
note_on channel=0 note=72 velocity=79 time=0
note_on channel=0 note=64 velocity=79 time=0
note_off channel=0 note=72 velocity=64 time=72
note_off channel=0 note=64 velocity=64 time=0
note_on channel=0 note=72 velocity=93 time=0
note_on channel=0 note=64 velocity=93 time=0
note_off channel=0 note=72 velocity=64 time=48
note_off channel=0 note=64 velocity=64 time=0
note_on channel=0 note=64 velocity=75 time=0
note_off channel=0 note=64 velocity=64 time=20
note_on channel=0 note=71 velocity=91 time=4
note_on channel=0 note=64 velocity=81 time=0
note_off channel=0 note=71 velocity=64 time=24
note_off channel=0 note=64 velocity=64 time=0
note_on channel=0 note=72 velocity=94 time=0
note_on channel=0 note=64 velocity=81 time=1
note_off channel=0 note=64 velocity=64 time=19
note_off channel=0 note=72 velocity=64 time=4
note_on channel=0 note=71 velocity=95 time=0
note_on channel=0 note=64 velocity=84 time=0
note_off channel=0 note=71 velocity=64 time=48
note_off channel=0 note=64 velocity=64 time=0
note_on channel=0 note=67 velocity=90 time=0
note_off channel=0 note=67 velocity=64 time=24
note_on channel=0 note=64 velocity=77 time=0
note_off channel=0 note=64 velocity=64 time=48
note_on channel=0 note=67 velocity=83 time=0
note_on channel=0 note=60 velocity=73 time=48
note_off channel=0 note=67 velocity=64 time=24
note_off channel=0 note=60 velocity=64 time=0
note_on channel=0 note=69 velocity=90 time=0
note_on channel=0 note=65 velocity=90 time=0
note_off channel=0 note=69 velocity=64 time=24
note_off channel=0 note=65 velocity=64 time=0
note_on channel=0 note=60 velocity=72 time=0
note_off channel=0 note=60 velocity=64 time=48
note_on channel=0 note=71 velocity=89 time=0
note_on channel=0 note=67 velocity=89 time=0
note_off channel=0 note=71 velocity=64 time=45
note_off channel=0 note=67 velocity=64 time=0
note_on channel=0 note=60 velocity=71 time=3
note_off channel=0 note=60 velocity=64 time=21
note_on channel=0 note=72 velocity=86 time=3
note_off channel=0 note=72 velocity=64 time=21
note_on channel=0 note=60 velocity=70 time=3
note_off channel=0 note=60 velocity=64 time=21
note_on channel=0 note=67 velocity=79 time=3
note_off channel=0 note=67 velocity=64 time=129
note_on channel=0 note=60 velocity=69 time=39
note_off channel=0 note=60 velocity=64 time=21
note_on channel=0 note=69 velocity=86 time=3
note_on channel=0 note=65 velocity=86 time=0
note_off channel=0 note=69 velocity=64 time=24
note_off channel=0 note=65 velocity=64 time=0
note_on channel=0 note=60 velocity=84 time=0
note_off channel=0 note=60 velocity=64 time=48
note_on channel=0 note=60 velocity=83 time=0
note_off channel=0 note=60 velocity=64 time=24
note_on channel=0 note=65 velocity=91 time=0
note_off channel=0 note=65 velocity=64 time=24
note_on channel=0 note=69 velocity=85 time=0
note_on channel=0 note=65 velocity=80 time=0
note_off channel=0 note=69 velocity=64 time=24
note_on channel=0 note=72 velocity=78 time=0
note_off channel=0 note=72 velocity=64 time=24
note_on channel=0 note=74 velocity=80 time=0
note_off channel=0 note=65 velocity=64 time=24
note_off channel=0 note=74 velocity=64 time=0
note_on channel=0 note=72 velocity=83 time=0
note_off channel=0 note=72 velocity=64 time=24
note_on channel=0 note=62 velocity=71 time=0
note_off channel=0 note=62 velocity=64 time=48
note_on channel=0 note=71 velocity=104 time=0
note_on channel=0 note=62 velocity=104 time=0
note_off channel=0 note=71 velocity=64 time=48
note_off channel=0 note=62 velocity=64 time=0
note_on channel=0 note=72 velocity=86 time=0
note_off channel=0 note=72 velocity=64 time=24
note_on channel=0 note=74 velocity=95 time=0
note_off channel=0 note=74 velocity=64 time=24
note_on channel=0 note=67 velocity=78 time=0
note_off channel=0 note=67 velocity=64 time=24
note_on channel=0 note=76 velocity=88 time=0
note_off channel=0 note=76 velocity=64 time=96
note_on channel=0 note=67 velocity=80 time=0
note_on channel=0 note=76 velocity=109 time=0
note_off channel=0 note=67 velocity=64 time=21
note_off channel=0 note=76 velocity=64 time=3
note_on channel=0 note=67 velocity=81 time=0
note_on channel=0 note=74 velocity=81 time=0
note_off channel=0 note=67 velocity=64 time=24
note_off channel=0 note=74 velocity=64 time=0
note_on channel=0 note=67 velocity=89 time=0
note_on channel=0 note=72 velocity=89 time=0
note_off channel=0 note=67 velocity=64 time=24
note_off channel=0 note=72 velocity=64 time=0
note_on channel=0 note=67 velocity=100 time=0
note_on channel=0 note=74 velocity=100 time=0
note_off channel=0 note=74 velocity=64 time=91
note_off channel=0 note=67 velocity=64 time=5
note_on channel=0 note=67 velocity=98 time=0
note_on channel=0 note=76 velocity=98 time=0
note_on channel=0 note=76 velocity=80 time=21
note_off channel=0 note=67 velocity=64 time=3
note_off channel=0 note=76 velocity=64 time=0
note_on channel=0 note=67 velocity=112 time=0
note_on channel=0 note=77 velocity=112 time=0
note_off channel=0 note=67 velocity=64 time=21
note_off channel=0 note=77 velocity=64 time=0
note_off channel=0 note=76 velocity=64 time=3
note_on channel=0 note=67 velocity=80 time=0
note_on channel=0 note=76 velocity=100 time=0
note_off channel=0 note=67 velocity=64 time=21
note_off channel=0 note=76 velocity=64 time=0
note_on channel=0 note=74 velocity=90 time=3
note_off channel=0 note=74 velocity=64 time=21
note_on channel=0 note=64 velocity=83 time=3
note_off channel=0 note=64 velocity=64 time=24
note_on channel=0 note=74 velocity=84 time=0
note_off channel=0 note=74 velocity=64 time=72
note_on channel=0 note=72 velocity=105 time=0
note_off channel=0 note=72 velocity=64 time=48
note_on channel=0 note=64 velocity=83 time=0
note_off channel=0 note=64 velocity=64 time=24
note_on channel=0 note=71 velocity=96 time=0
note_on channel=0 note=64 velocity=84 time=0
note_off channel=0 note=71 velocity=64 time=24
note_off channel=0 note=64 velocity=64 time=0
note_on channel=0 note=72 velocity=87 time=0
note_on channel=0 note=64 velocity=76 time=1
note_off channel=0 note=72 velocity=64 time=23
note_on channel=0 note=71 velocity=100 time=0
note_on channel=0 note=64 velocity=80 time=0
note_off channel=0 note=64 velocity=64 time=1
note_off channel=0 note=64 velocity=64 time=42
note_off channel=0 note=71 velocity=64 time=5
note_on channel=0 note=67 velocity=88 time=0
note_off channel=0 note=67 velocity=64 time=24
note_on channel=0 note=64 velocity=79 time=0
note_off channel=0 note=64 velocity=64 time=48
note_on channel=0 note=67 velocity=95 time=0
note_on channel=0 note=60 velocity=85 time=48
note_off channel=0 note=67 velocity=64 time=24
note_off channel=0 note=60 velocity=64 time=0
note_on channel=0 note=69 velocity=84 time=0
note_on channel=0 note=60 velocity=69 time=24
note_off channel=0 note=60 velocity=64 time=43
note_off channel=0 note=69 velocity=64 time=5
note_on channel=0 note=72 velocity=90 time=0
note_off channel=0 note=72 velocity=64 time=48
note_on channel=0 note=69 velocity=83 time=0
note_off channel=0 note=69 velocity=64 time=24
note_on channel=0 note=77 velocity=102 time=0
note_off channel=0 note=77 velocity=64 time=24
note_on channel=0 note=67 velocity=80 time=0
note_off channel=0 note=67 velocity=64 time=21
note_on channel=0 note=76 velocity=95 time=3
note_off channel=0 note=76 velocity=64 time=24
note_on channel=0 note=67 velocity=80 time=0
note_off channel=0 note=67 velocity=64 time=24
note_on channel=0 note=74 velocity=90 time=0
note_off channel=0 note=74 velocity=64 time=24
note_on channel=0 note=72 velocity=80 time=0
note_off channel=0 note=72 velocity=64 time=88
note_on channel=0 note=60 velocity=70 time=8
note_off channel=0 note=60 velocity=64 time=24
note_on channel=0 note=69 velocity=95 time=0
note_on channel=0 note=65 velocity=95 time=0
note_off channel=0 note=69 velocity=64 time=24
note_off channel=0 note=65 velocity=64 time=0
note_on channel=0 note=60 velocity=80 time=0
note_off channel=0 note=60 velocity=64 time=48
note_on channel=0 note=60 velocity=80 time=0
note_off channel=0 note=60 velocity=64 time=24
note_on channel=0 note=65 velocity=72 time=0
note_on channel=0 note=69 velocity=78 time=24
note_off channel=0 note=69 velocity=64 time=24
note_on channel=0 note=72 velocity=86 time=0
note_off channel=0 note=65 velocity=64 time=21
note_off channel=0 note=72 velocity=64 time=3
note_on channel=0 note=74 velocity=86 time=0
note_on channel=0 note=62 velocity=90 time=1
note_off channel=0 note=62 velocity=64 time=21
note_off channel=0 note=74 velocity=64 time=2
note_on channel=0 note=72 velocity=88 time=0
note_on channel=0 note=62 velocity=62 time=24
note_off channel=0 note=62 velocity=64 time=43
note_off channel=0 note=72 velocity=64 time=5
note_on channel=0 note=71 velocity=80 time=0
note_off channel=0 note=71 velocity=64 time=43
note_on channel=0 note=72 velocity=80 time=5
note_off channel=0 note=72 velocity=64 time=21
note_on channel=0 note=74 velocity=77 time=3
note_off channel=0 note=74 velocity=64 time=21
note_on channel=0 note=72 velocity=77 time=3
note_off channel=0 note=72 velocity=64 time=24
note_on channel=0 note=79 velocity=94 time=0
note_off channel=0 note=79 velocity=64 time=48
note_on channel=0 note=76 velocity=75 time=0
note_off channel=0 note=76 velocity=64 time=24
note_on channel=0 note=77 velocity=84 time=0
note_off channel=0 note=77 velocity=64 time=24
note_on channel=0 note=79 velocity=97 time=0
note_off channel=0 note=79 velocity=64 time=48
note_on channel=0 note=76 velocity=80 time=0
note_off channel=0 note=76 velocity=64 time=24
note_on channel=0 note=77 velocity=85 time=0
note_off channel=0 note=77 velocity=64 time=24
note_on channel=0 note=79 velocity=99 time=0
note_off channel=0 note=79 velocity=64 time=24
note_on channel=0 note=71 velocity=80 time=0
note_on channel=0 note=67 velocity=80 time=0
note_off channel=0 note=71 velocity=64 time=21
note_off channel=0 note=67 velocity=64 time=0
note_on channel=0 note=69 velocity=82 time=3
note_off channel=0 note=69 velocity=64 time=24
note_on channel=0 note=71 velocity=86 time=0
note_off channel=0 note=71 velocity=64 time=24
note_on channel=0 note=72 velocity=87 time=0
note_off channel=0 note=72 velocity=64 time=24
note_on channel=0 note=74 velocity=93 time=0
note_off channel=0 note=74 velocity=64 time=24
note_on channel=0 note=76 velocity=93 time=0
note_off channel=0 note=76 velocity=64 time=24
note_on channel=0 note=77 velocity=100 time=0
note_off channel=0 note=77 velocity=64 time=24
note_on channel=0 note=76 velocity=94 time=0
note_off channel=0 note=76 velocity=64 time=48
note_on channel=0 note=72 velocity=80 time=0
note_off channel=0 note=72 velocity=64 time=24
note_on channel=0 note=74 velocity=74 time=0
note_off channel=0 note=74 velocity=64 time=24
note_on channel=0 note=76 velocity=93 time=0
note_off channel=0 note=76 velocity=64 time=48
note_on channel=0 note=64 velocity=69 time=0
note_off channel=0 note=64 velocity=64 time=21
note_on channel=0 note=65 velocity=75 time=3
note_off channel=0 note=65 velocity=64 time=24
note_on channel=0 note=67 velocity=93 time=0
note_off channel=0 note=67 velocity=64 time=24
note_on channel=0 note=69 velocity=86 time=0
note_off channel=0 note=69 velocity=64 time=24
note_on channel=0 note=67 velocity=95 time=0
note_off channel=0 note=67 velocity=64 time=24
note_on channel=0 note=65 velocity=90 time=0
note_off channel=0 note=65 velocity=64 time=24
note_on channel=0 note=67 velocity=100 time=0
note_off channel=0 note=67 velocity=64 time=24
note_on channel=0 note=72 velocity=100 time=0
note_off channel=0 note=72 velocity=64 time=24
note_on channel=0 note=71 velocity=84 time=0
note_off channel=0 note=71 velocity=64 time=24
note_on channel=0 note=72 velocity=91 time=0
note_off channel=0 note=72 velocity=64 time=24
note_on channel=0 note=69 velocity=92 time=0
note_off channel=0 note=69 velocity=64 time=48
note_on channel=0 note=72 velocity=83 time=0
note_off channel=0 note=72 velocity=64 time=24
note_on channel=0 note=71 velocity=75 time=0
note_off channel=0 note=71 velocity=64 time=24
note_on channel=0 note=69 velocity=87 time=0
note_off channel=0 note=69 velocity=64 time=48
note_on channel=0 note=67 velocity=95 time=0
note_off channel=0 note=67 velocity=64 time=24
note_on channel=0 note=65 velocity=85 time=0
note_off channel=0 note=65 velocity=64 time=24
note_on channel=0 note=67 velocity=95 time=0
note_off channel=0 note=67 velocity=64 time=24
note_on channel=0 note=65 velocity=83 time=0
note_off channel=0 note=65 velocity=64 time=24
note_on channel=0 note=64 velocity=94 time=0
note_off channel=0 note=64 velocity=64 time=24
note_on channel=0 note=65 velocity=85 time=0
note_off channel=0 note=65 velocity=64 time=24
note_on channel=0 note=67 velocity=94 time=0
note_off channel=0 note=67 velocity=64 time=24
note_on channel=0 note=69 velocity=85 time=0
note_off channel=0 note=69 velocity=64 time=24
note_on channel=0 note=71 velocity=100 time=0
note_off channel=0 note=71 velocity=64 time=24
note_on channel=0 note=72 velocity=91 time=0
note_off channel=0 note=72 velocity=64 time=24
note_on channel=0 note=69 velocity=100 time=0
note_off channel=0 note=69 velocity=64 time=48
note_on channel=0 note=72 velocity=91 time=0
note_off channel=0 note=72 velocity=64 time=24
note_on channel=0 note=71 velocity=80 time=0
note_off channel=0 note=71 velocity=64 time=24
note_on channel=0 note=72 velocity=92 time=0
note_off channel=0 note=72 velocity=64 time=48
note_on channel=0 note=71 velocity=87 time=0
note_off channel=0 note=71 velocity=64 time=24
note_on channel=0 note=72 velocity=78 time=0
note_off channel=0 note=72 velocity=64 time=24
note_on channel=0 note=71 velocity=82 time=0
note_off channel=0 note=71 velocity=64 time=24
note_on channel=0 note=69 velocity=81 time=0
note_off channel=0 note=69 velocity=64 time=24
note_on channel=0 note=71 velocity=78 time=0
note_off channel=0 note=71 velocity=64 time=24
note_on channel=0 note=72 velocity=83 time=0
note_off channel=0 note=72 velocity=64 time=24
note_on channel=0 note=74 velocity=82 time=0
note_off channel=0 note=74 velocity=64 time=24
note_on channel=0 note=72 velocity=95 time=0
note_on channel=0 note=76 velocity=95 time=0
note_off channel=0 note=72 velocity=64 time=24
note_off channel=0 note=76 velocity=64 time=0
note_on channel=0 note=74 velocity=101 time=0
note_on channel=0 note=77 velocity=101 time=0
note_off channel=0 note=74 velocity=64 time=24
note_off channel=0 note=77 velocity=64 time=0
note_on channel=0 note=76 velocity=106 time=0
note_on channel=0 note=79 velocity=106 time=0
note_off channel=0 note=76 velocity=64 time=24
note_off channel=0 note=79 velocity=64 time=0
note_on channel=0 note=76 velocity=104 time=0
note_on channel=0 note=79 velocity=104 time=0
note_off channel=0 note=76 velocity=64 time=48
note_off channel=0 note=79 velocity=64 time=0
note_on channel=0 note=72 velocity=117 time=0
note_on channel=0 note=76 velocity=117 time=0
note_off channel=0 note=72 velocity=64 time=24
note_off channel=0 note=76 velocity=64 time=0
note_on channel=0 note=74 velocity=80 time=0
note_on channel=0 note=77 velocity=80 time=0
note_off channel=0 note=74 velocity=64 time=24
note_off channel=0 note=77 velocity=64 time=0
note_on channel=0 note=76 velocity=103 time=0
note_on channel=0 note=79 velocity=103 time=0
note_off channel=0 note=76 velocity=64 time=48
note_off channel=0 note=79 velocity=64 time=0
note_on channel=0 note=72 velocity=119 time=0
note_on channel=0 note=76 velocity=119 time=0
note_off channel=0 note=72 velocity=64 time=24
note_off channel=0 note=76 velocity=64 time=0
note_on channel=0 note=74 velocity=88 time=0
note_on channel=0 note=77 velocity=88 time=0
note_off channel=0 note=74 velocity=64 time=24
note_off channel=0 note=77 velocity=64 time=0
note_on channel=0 note=79 velocity=111 time=0
note_on channel=0 note=76 velocity=111 time=0
note_off channel=0 note=79 velocity=64 time=24
note_off channel=0 note=76 velocity=64 time=0
note_on channel=0 note=71 velocity=80 time=0
note_on channel=0 note=67 velocity=111 time=0
note_off channel=0 note=71 velocity=64 time=21
note_off channel=0 note=67 velocity=64 time=3
note_on channel=0 note=69 velocity=97 time=0
note_off channel=0 note=69 velocity=64 time=24
note_on channel=0 note=71 velocity=101 time=0
note_off channel=0 note=71 velocity=64 time=24
note_on channel=0 note=72 velocity=110 time=0
note_off channel=0 note=72 velocity=64 time=24
note_on channel=0 note=74 velocity=96 time=0
note_off channel=0 note=74 velocity=64 time=24
note_on channel=0 note=76 velocity=106 time=0
note_off channel=0 note=76 velocity=64 time=24
note_on channel=0 note=77 velocity=106 time=0
note_off channel=0 note=77 velocity=64 time=24
note_on channel=0 note=72 velocity=105 time=0
note_on channel=0 note=76 velocity=105 time=0
note_off channel=0 note=72 velocity=64 time=48
note_off channel=0 note=76 velocity=64 time=0
note_on channel=0 note=69 velocity=118 time=0
note_on channel=0 note=72 velocity=118 time=0
note_off channel=0 note=69 velocity=64 time=24
note_off channel=0 note=72 velocity=64 time=0
note_on channel=0 note=71 velocity=80 time=0
note_on channel=0 note=74 velocity=80 time=0
note_off channel=0 note=71 velocity=64 time=21
note_off channel=0 note=74 velocity=64 time=3
note_on channel=0 note=76 velocity=110 time=0
note_on channel=0 note=72 velocity=110 time=0
note_off channel=0 note=76 velocity=64 time=48
note_off channel=0 note=72 velocity=64 time=0
note_on channel=0 note=64 velocity=111 time=0
note_on channel=0 note=65 velocity=89 time=24
note_off channel=0 note=64 velocity=64 time=24
note_off channel=0 note=65 velocity=64 time=0
note_on channel=0 note=67 velocity=110 time=0
note_off channel=0 note=67 velocity=64 time=24
note_on channel=0 note=69 velocity=94 time=0
note_off channel=0 note=69 velocity=64 time=24
note_on channel=0 note=67 velocity=110 time=0
note_off channel=0 note=67 velocity=64 time=24
note_on channel=0 note=65 velocity=94 time=0
note_off channel=0 note=65 velocity=64 time=24
note_on channel=0 note=67 velocity=110 time=0
note_off channel=0 note=67 velocity=64 time=24
note_on channel=0 note=72 velocity=102 time=0
note_on channel=0 note=69 velocity=80 time=0
note_off channel=0 note=69 velocity=64 time=21
note_off channel=0 note=72 velocity=64 time=3
note_on channel=0 note=71 velocity=109 time=0
note_on channel=0 note=67 velocity=80 time=0
note_off channel=0 note=67 velocity=64 time=21
note_off channel=0 note=71 velocity=64 time=3
note_on channel=0 note=72 velocity=112 time=0
note_on channel=0 note=69 velocity=80 time=0
note_off channel=0 note=69 velocity=64 time=21
note_off channel=0 note=72 velocity=64 time=3
note_on channel=0 note=69 velocity=107 time=0
note_on channel=0 note=65 velocity=107 time=0
note_off channel=0 note=69 velocity=64 time=48
note_off channel=0 note=65 velocity=64 time=0
note_on channel=0 note=72 velocity=111 time=0
note_on channel=0 note=69 velocity=111 time=0
note_off channel=0 note=72 velocity=64 time=24
note_off channel=0 note=69 velocity=64 time=0
note_on channel=0 note=71 velocity=91 time=0
note_on channel=0 note=67 velocity=91 time=0
note_off channel=0 note=71 velocity=64 time=24
note_off channel=0 note=67 velocity=64 time=0
note_on channel=0 note=69 velocity=105 time=0
note_on channel=0 note=65 velocity=105 time=0
note_off channel=0 note=69 velocity=64 time=48
note_off channel=0 note=65 velocity=64 time=0
note_on channel=0 note=67 velocity=112 time=0
note_on channel=0 note=64 velocity=112 time=0
note_off channel=0 note=67 velocity=64 time=24
note_off channel=0 note=64 velocity=64 time=0
note_on channel=0 note=65 velocity=89 time=0
note_on channel=0 note=62 velocity=89 time=0
note_off channel=0 note=65 velocity=64 time=24
note_off channel=0 note=62 velocity=64 time=0
note_on channel=0 note=67 velocity=98 time=0
note_on channel=0 note=64 velocity=98 time=0
note_off channel=0 note=67 velocity=64 time=24
note_off channel=0 note=64 velocity=64 time=0
note_on channel=0 note=65 velocity=89 time=0
note_on channel=0 note=62 velocity=74 time=1
note_off channel=0 note=62 velocity=64 time=21
note_off channel=0 note=65 velocity=64 time=2
note_on channel=0 note=64 velocity=101 time=0
note_on channel=0 note=60 velocity=101 time=0
note_off channel=0 note=64 velocity=64 time=24
note_off channel=0 note=60 velocity=64 time=0
note_on channel=0 note=65 velocity=91 time=0
note_on channel=0 note=62 velocity=80 time=0
note_off channel=0 note=62 velocity=64 time=21
note_off channel=0 note=65 velocity=64 time=3
note_on channel=0 note=67 velocity=99 time=0
note_on channel=0 note=64 velocity=99 time=0
note_off channel=0 note=67 velocity=64 time=24
note_off channel=0 note=64 velocity=64 time=0
note_on channel=0 note=69 velocity=89 time=0
note_on channel=0 note=65 velocity=89 time=0
note_off channel=0 note=69 velocity=64 time=24
note_off channel=0 note=65 velocity=64 time=0
note_on channel=0 note=71 velocity=103 time=0
note_on channel=0 note=67 velocity=103 time=0
note_off channel=0 note=71 velocity=64 time=24
note_off channel=0 note=67 velocity=64 time=0
note_on channel=0 note=72 velocity=106 time=0
note_on channel=0 note=69 velocity=106 time=0
note_off channel=0 note=72 velocity=64 time=24
note_off channel=0 note=69 velocity=64 time=0
note_on channel=0 note=69 velocity=106 time=0
note_on channel=0 note=65 velocity=106 time=0
note_off channel=0 note=69 velocity=64 time=48
note_off channel=0 note=65 velocity=64 time=0
note_on channel=0 note=72 velocity=100 time=0
note_on channel=0 note=69 velocity=100 time=0
note_off channel=0 note=72 velocity=64 time=24
note_off channel=0 note=69 velocity=64 time=0
note_on channel=0 note=71 velocity=81 time=0
note_on channel=0 note=67 velocity=81 time=0
note_off channel=0 note=71 velocity=64 time=24
note_off channel=0 note=67 velocity=64 time=0
note_on channel=0 note=72 velocity=100 time=0
note_on channel=0 note=69 velocity=100 time=0
note_off channel=0 note=72 velocity=64 time=48
note_off channel=0 note=69 velocity=64 time=0
note_on channel=0 note=71 velocity=105 time=0
note_on channel=0 note=67 velocity=105 time=0
note_off channel=0 note=71 velocity=64 time=24
note_off channel=0 note=67 velocity=64 time=0
note_on channel=0 note=72 velocity=85 time=0
note_on channel=0 note=69 velocity=85 time=0
note_off channel=0 note=72 velocity=64 time=24
note_off channel=0 note=69 velocity=64 time=0
note_on channel=0 note=71 velocity=89 time=0
note_on channel=0 note=67 velocity=89 time=0
note_off channel=0 note=71 velocity=64 time=24
note_off channel=0 note=67 velocity=64 time=0
note_on channel=0 note=69 velocity=77 time=0
note_on channel=0 note=65 velocity=77 time=0
note_off channel=0 note=69 velocity=64 time=24
note_off channel=0 note=65 velocity=64 time=0
note_on channel=0 note=71 velocity=88 time=0
note_on channel=0 note=67 velocity=88 time=0
note_off channel=0 note=71 velocity=64 time=24
note_off channel=0 note=67 velocity=64 time=0
note_on channel=0 note=72 velocity=87 time=0
note_on channel=0 note=69 velocity=87 time=0
note_off channel=0 note=72 velocity=64 time=24
note_off channel=0 note=69 velocity=64 time=0
note_on channel=0 note=71 velocity=81 time=0
note_on channel=0 note=74 velocity=81 time=0
note_off channel=0 note=71 velocity=64 time=24
note_off channel=0 note=74 velocity=64 time=0
note_on channel=0 note=72 velocity=98 time=0
note_on channel=0 note=76 velocity=98 time=0
note_off channel=0 note=72 velocity=64 time=24
note_off channel=0 note=76 velocity=64 time=0
note_on channel=0 note=74 velocity=110 time=0
note_on channel=0 note=77 velocity=110 time=0
note_off channel=0 note=74 velocity=64 time=24
note_off channel=0 note=77 velocity=64 time=0
note_on channel=0 note=76 velocity=117 time=0
note_on channel=0 note=79 velocity=117 time=0
note_off channel=0 note=76 velocity=64 time=24
note_off channel=0 note=79 velocity=64 time=0
note_on channel=0 note=76 velocity=108 time=0
note_on channel=0 note=79 velocity=108 time=0
note_off channel=0 note=76 velocity=64 time=48
note_off channel=0 note=79 velocity=64 time=0
note_on channel=0 note=72 velocity=121 time=0
note_on channel=0 note=76 velocity=121 time=0
note_off channel=0 note=72 velocity=64 time=24
note_off channel=0 note=76 velocity=64 time=0
note_on channel=0 note=74 velocity=88 time=0
note_on channel=0 note=77 velocity=88 time=0
note_off channel=0 note=74 velocity=64 time=24
note_off channel=0 note=77 velocity=64 time=0
note_on channel=0 note=76 velocity=111 time=0
note_on channel=0 note=79 velocity=111 time=0
note_off channel=0 note=76 velocity=64 time=48
note_off channel=0 note=79 velocity=64 time=0
note_on channel=0 note=72 velocity=121 time=0
note_on channel=0 note=76 velocity=121 time=0
note_off channel=0 note=72 velocity=64 time=24
note_off channel=0 note=76 velocity=64 time=0
note_on channel=0 note=74 velocity=89 time=0
note_on channel=0 note=77 velocity=89 time=0
note_off channel=0 note=74 velocity=64 time=24
note_off channel=0 note=77 velocity=64 time=0
note_on channel=0 note=79 velocity=97 time=0
note_on channel=0 note=76 velocity=97 time=0
note_off channel=0 note=79 velocity=64 time=24
note_off channel=0 note=76 velocity=64 time=0
note_on channel=0 note=67 velocity=106 time=0
note_on channel=0 note=71 velocity=96 time=1
note_off channel=0 note=67 velocity=64 time=23
note_on channel=0 note=69 velocity=111 time=0
note_off channel=0 note=71 velocity=64 time=1
note_off channel=0 note=69 velocity=64 time=23
note_on channel=0 note=71 velocity=87 time=0
note_off channel=0 note=71 velocity=64 time=24
note_on channel=0 note=72 velocity=99 time=0
note_off channel=0 note=72 velocity=64 time=24
note_on channel=0 note=74 velocity=87 time=0
note_off channel=0 note=74 velocity=64 time=24
note_on channel=0 note=76 velocity=90 time=0
note_off channel=0 note=76 velocity=64 time=24
note_on channel=0 note=77 velocity=93 time=0
note_off channel=0 note=77 velocity=64 time=24
note_on channel=0 note=72 velocity=107 time=0
note_on channel=0 note=76 velocity=107 time=0
note_off channel=0 note=72 velocity=64 time=48
note_off channel=0 note=76 velocity=64 time=0
note_on channel=0 note=69 velocity=118 time=0
note_on channel=0 note=72 velocity=118 time=0
note_off channel=0 note=69 velocity=64 time=24
note_off channel=0 note=72 velocity=64 time=0
note_on channel=0 note=71 velocity=90 time=0
note_on channel=0 note=74 velocity=90 time=0
note_off channel=0 note=71 velocity=64 time=24
note_off channel=0 note=74 velocity=64 time=0
note_on channel=0 note=76 velocity=106 time=0
note_on channel=0 note=72 velocity=106 time=0
note_off channel=0 note=76 velocity=64 time=48
note_off channel=0 note=72 velocity=64 time=0
note_on channel=0 note=64 velocity=109 time=0
note_on channel=0 note=65 velocity=91 time=24
note_off channel=0 note=64 velocity=64 time=24
note_off channel=0 note=65 velocity=64 time=0
note_on channel=0 note=67 velocity=100 time=0
note_off channel=0 note=67 velocity=64 time=24
note_on channel=0 note=69 velocity=92 time=0
note_off channel=0 note=69 velocity=64 time=24
note_on channel=0 note=67 velocity=103 time=0
note_off channel=0 note=67 velocity=64 time=24
note_on channel=0 note=65 velocity=91 time=0
note_off channel=0 note=65 velocity=64 time=24
note_on channel=0 note=67 velocity=90 time=0
note_on channel=0 note=64 velocity=84 time=0
note_off channel=0 note=67 velocity=64 time=24
note_on channel=0 note=72 velocity=110 time=0
note_on channel=0 note=69 velocity=110 time=0
note_off channel=0 note=64 velocity=64 time=1
note_off channel=0 note=72 velocity=64 time=23
note_off channel=0 note=69 velocity=64 time=0
note_on channel=0 note=71 velocity=111 time=0
note_on channel=0 note=67 velocity=111 time=0
note_off channel=0 note=71 velocity=64 time=24
note_off channel=0 note=67 velocity=64 time=0
note_on channel=0 note=72 velocity=112 time=0
note_on channel=0 note=69 velocity=112 time=0
note_off channel=0 note=72 velocity=64 time=24
note_off channel=0 note=69 velocity=64 time=0
note_on channel=0 note=69 velocity=109 time=0
note_on channel=0 note=65 velocity=80 time=0
note_off channel=0 note=65 velocity=64 time=43
note_off channel=0 note=69 velocity=64 time=5
note_on channel=0 note=72 velocity=102 time=0
note_on channel=0 note=69 velocity=102 time=0
note_off channel=0 note=72 velocity=64 time=24
note_off channel=0 note=69 velocity=64 time=0
note_on channel=0 note=71 velocity=80 time=0
note_on channel=0 note=67 velocity=80 time=0
note_off channel=0 note=71 velocity=64 time=24
note_off channel=0 note=67 velocity=64 time=0
note_on channel=0 note=69 velocity=90 time=0
note_on channel=0 note=65 velocity=90 time=0
note_off channel=0 note=69 velocity=64 time=48
note_off channel=0 note=65 velocity=64 time=0
note_on channel=0 note=67 velocity=111 time=0
note_on channel=0 note=64 velocity=111 time=0
note_off channel=0 note=67 velocity=64 time=24
note_off channel=0 note=64 velocity=64 time=0
note_on channel=0 note=65 velocity=89 time=0
note_on channel=0 note=62 velocity=80 time=0
note_off channel=0 note=62 velocity=64 time=21
note_off channel=0 note=65 velocity=64 time=3
note_on channel=0 note=67 velocity=104 time=0
note_on channel=0 note=64 velocity=104 time=0
note_off channel=0 note=67 velocity=64 time=24
note_off channel=0 note=64 velocity=64 time=0
note_on channel=0 note=65 velocity=98 time=0
note_on channel=0 note=62 velocity=98 time=0
note_off channel=0 note=62 velocity=64 time=21
note_off channel=0 note=65 velocity=64 time=3
note_on channel=0 note=64 velocity=109 time=0
note_on channel=0 note=60 velocity=109 time=0
note_off channel=0 note=64 velocity=64 time=24
note_off channel=0 note=60 velocity=64 time=0
note_on channel=0 note=65 velocity=97 time=0
note_on channel=0 note=62 velocity=97 time=0
note_off channel=0 note=62 velocity=64 time=21
note_off channel=0 note=65 velocity=64 time=3
note_on channel=0 note=67 velocity=100 time=0
note_on channel=0 note=64 velocity=100 time=0
note_off channel=0 note=67 velocity=64 time=24
note_off channel=0 note=64 velocity=64 time=0
note_on channel=0 note=69 velocity=102 time=0
note_on channel=0 note=65 velocity=102 time=0
note_off channel=0 note=69 velocity=64 time=24
note_off channel=0 note=65 velocity=64 time=0
note_on channel=0 note=71 velocity=106 time=0
note_on channel=0 note=67 velocity=106 time=0
note_off channel=0 note=71 velocity=64 time=24
note_off channel=0 note=67 velocity=64 time=0
note_on channel=0 note=72 velocity=108 time=0
note_on channel=0 note=69 velocity=108 time=0
note_off channel=0 note=72 velocity=64 time=24
note_off channel=0 note=69 velocity=64 time=0
note_on channel=0 note=69 velocity=110 time=0
note_on channel=0 note=65 velocity=80 time=0
note_off channel=0 note=65 velocity=64 time=43
note_off channel=0 note=69 velocity=64 time=5
note_on channel=0 note=72 velocity=100 time=0
note_on channel=0 note=69 velocity=100 time=0
note_off channel=0 note=72 velocity=64 time=24
note_off channel=0 note=69 velocity=64 time=0
note_on channel=0 note=71 velocity=87 time=0
note_on channel=0 note=67 velocity=87 time=0
note_off channel=0 note=71 velocity=64 time=24
note_off channel=0 note=67 velocity=64 time=0
note_on channel=0 note=72 velocity=105 time=0
note_on channel=0 note=69 velocity=110 time=0
note_off channel=0 note=72 velocity=64 time=48
note_off channel=0 note=69 velocity=64 time=0
note_on channel=0 note=71 velocity=103 time=0
note_on channel=0 note=67 velocity=103 time=0
note_off channel=0 note=71 velocity=64 time=24
note_off channel=0 note=67 velocity=64 time=0
note_on channel=0 note=72 velocity=86 time=0
note_on channel=0 note=69 velocity=86 time=0
note_off channel=0 note=72 velocity=64 time=24
note_off channel=0 note=69 velocity=64 time=0
note_on channel=0 note=71 velocity=105 time=0
note_off channel=0 note=71 velocity=64 time=24
note_on channel=0 note=69 velocity=92 time=0
note_off channel=0 note=69 velocity=64 time=24
note_on channel=0 note=71 velocity=81 time=0
note_off channel=0 note=71 velocity=64 time=24
note_on channel=0 note=72 velocity=80 time=0
note_off channel=0 note=72 velocity=64 time=24
note_on channel=0 note=74 velocity=76 time=0
note_off channel=0 note=74 velocity=64 time=24
note_on channel=0 note=76 velocity=78 time=0
note_off channel=0 note=76 velocity=64 time=24
note_on channel=0 note=77 velocity=78 time=0
note_off channel=0 note=77 velocity=64 time=24
note_on channel=0 note=79 velocity=85 time=0
note_off channel=0 note=79 velocity=64 time=24
note_on channel=0 note=76 velocity=90 time=0
note_off channel=0 note=76 velocity=64 time=48
note_on channel=0 note=72 velocity=79 time=0
note_off channel=0 note=72 velocity=64 time=24
note_on channel=0 note=74 velocity=67 time=0
note_off channel=0 note=74 velocity=64 time=24
note_on channel=0 note=76 velocity=84 time=0
note_off channel=0 note=76 velocity=64 time=48
note_on channel=0 note=74 velocity=78 time=0
note_off channel=0 note=74 velocity=64 time=24
note_on channel=0 note=72 velocity=72 time=0
note_off channel=0 note=72 velocity=64 time=24
note_on channel=0 note=74 velocity=78 time=0
note_off channel=0 note=74 velocity=64 time=24
note_on channel=0 note=71 velocity=63 time=0
note_off channel=0 note=71 velocity=64 time=24
note_on channel=0 note=72 velocity=68 time=0
note_off channel=0 note=72 velocity=64 time=24
note_on channel=0 note=74 velocity=74 time=0
note_off channel=0 note=74 velocity=64 time=24
note_on channel=0 note=76 velocity=80 time=0
note_off channel=0 note=76 velocity=64 time=24
note_on channel=0 note=74 velocity=73 time=0
note_off channel=0 note=74 velocity=64 time=24
note_on channel=0 note=72 velocity=72 time=0
note_off channel=0 note=72 velocity=64 time=24
note_on channel=0 note=71 velocity=68 time=0
note_off channel=0 note=71 velocity=64 time=24
note_on channel=0 note=72 velocity=75 time=0
note_off channel=0 note=72 velocity=64 time=48
note_on channel=0 note=69 velocity=69 time=0
note_off channel=0 note=69 velocity=64 time=24
note_on channel=0 note=71 velocity=73 time=0
note_off channel=0 note=71 velocity=64 time=24
note_on channel=0 note=72 velocity=74 time=0
note_off channel=0 note=72 velocity=64 time=48
note_on channel=0 note=60 velocity=82 time=0
note_on channel=0 note=62 velocity=77 time=24
note_off channel=0 note=60 velocity=64 time=18
note_off channel=0 note=62 velocity=64 time=6
note_on channel=0 note=64 velocity=87 time=0
note_off channel=0 note=64 velocity=64 time=24
note_on channel=0 note=65 velocity=82 time=0
note_off channel=0 note=65 velocity=64 time=24
note_on channel=0 note=64 velocity=79 time=0
note_off channel=0 note=64 velocity=64 time=24
note_on channel=0 note=62 velocity=75 time=0
note_off channel=0 note=62 velocity=64 time=24
note_on channel=0 note=64 velocity=80 time=0
note_off channel=0 note=64 velocity=64 time=24
note_on channel=0 note=72 velocity=72 time=0
note_off channel=0 note=72 velocity=64 time=24
note_on channel=0 note=71 velocity=77 time=0
note_off channel=0 note=71 velocity=64 time=24
note_on channel=0 note=72 velocity=82 time=0
note_off channel=0 note=72 velocity=64 time=24
note_on channel=0 note=69 velocity=78 time=0
note_off channel=0 note=69 velocity=64 time=48
note_on channel=0 note=72 velocity=74 time=0
note_off channel=0 note=72 velocity=64 time=24
note_on channel=0 note=71 velocity=66 time=0
note_off channel=0 note=71 velocity=64 time=24
note_on channel=0 note=69 velocity=79 time=0
note_off channel=0 note=69 velocity=64 time=48
note_on channel=0 note=67 velocity=69 time=0
note_off channel=0 note=67 velocity=64 time=24
note_on channel=0 note=65 velocity=70 time=0
note_off channel=0 note=65 velocity=64 time=24
note_on channel=0 note=67 velocity=77 time=0
note_off channel=0 note=67 velocity=64 time=24
note_on channel=0 note=65 velocity=71 time=0
note_off channel=0 note=65 velocity=64 time=24
note_on channel=0 note=64 velocity=70 time=0
note_off channel=0 note=64 velocity=64 time=24
note_on channel=0 note=65 velocity=70 time=0
note_off channel=0 note=65 velocity=64 time=24
note_on channel=0 note=67 velocity=70 time=0
note_off channel=0 note=67 velocity=64 time=24
note_on channel=0 note=69 velocity=73 time=0
note_off channel=0 note=69 velocity=64 time=24
note_on channel=0 note=71 velocity=77 time=0
note_off channel=0 note=71 velocity=64 time=24
note_on channel=0 note=72 velocity=77 time=0
note_off channel=0 note=72 velocity=64 time=24
note_on channel=0 note=69 velocity=73 time=0
note_off channel=0 note=69 velocity=64 time=48
note_on channel=0 note=72 velocity=69 time=0
note_off channel=0 note=72 velocity=64 time=24
note_on channel=0 note=71 velocity=66 time=0
note_off channel=0 note=71 velocity=64 time=24
note_on channel=0 note=72 velocity=69 time=0
note_off channel=0 note=72 velocity=64 time=48
note_on channel=0 note=71 velocity=73 time=0
note_off channel=0 note=71 velocity=64 time=24
note_on channel=0 note=69 velocity=68 time=0
note_off channel=0 note=69 velocity=64 time=24
note_on channel=0 note=71 velocity=69 time=0
note_off channel=0 note=71 velocity=64 time=24
note_on channel=0 note=72 velocity=75 time=0
note_off channel=0 note=72 velocity=64 time=24
note_on channel=0 note=74 velocity=69 time=0
note_off channel=0 note=74 velocity=64 time=24
note_on channel=0 note=72 velocity=71 time=0
note_off channel=0 note=72 velocity=64 time=24
note_on channel=0 note=71 velocity=69 time=0
note_off channel=0 note=71 velocity=64 time=24
note_on channel=0 note=72 velocity=69 time=0
note_off channel=0 note=72 velocity=64 time=24
note_on channel=0 note=69 velocity=68 time=0
note_off channel=0 note=69 velocity=64 time=24
note_on channel=0 note=71 velocity=68 time=0
note_off channel=0 note=71 velocity=64 time=24
note_on channel=0 note=72 velocity=80 time=0
note_off channel=0 note=72 velocity=64 time=172
note_on channel=0 note=72 velocity=69 time=1412
note_on channel=0 note=76 velocity=69 time=0
note_off channel=0 note=72 velocity=64 time=24
note_off channel=0 note=76 velocity=64 time=0
note_on channel=0 note=74 velocity=65 time=0
note_on channel=0 note=77 velocity=65 time=0
note_off channel=0 note=74 velocity=64 time=24
note_off channel=0 note=77 velocity=64 time=0
note_on channel=0 note=76 velocity=75 time=0
note_on channel=0 note=79 velocity=75 time=0
note_off channel=0 note=76 velocity=64 time=48
note_off channel=0 note=79 velocity=64 time=0
note_on channel=0 note=72 velocity=71 time=0
note_on channel=0 note=76 velocity=71 time=0
note_off channel=0 note=72 velocity=64 time=47
note_off channel=0 note=76 velocity=64 time=0
note_on channel=0 note=71 velocity=73 time=49
note_on channel=0 note=67 velocity=73 time=0
note_off channel=0 note=71 velocity=64 time=24
note_off channel=0 note=67 velocity=64 time=0
note_on channel=0 note=72 velocity=65 time=0
note_on channel=0 note=69 velocity=65 time=0
note_off channel=0 note=72 velocity=64 time=24
note_off channel=0 note=69 velocity=64 time=0
note_on channel=0 note=71 velocity=74 time=0
note_on channel=0 note=74 velocity=74 time=0
note_off channel=0 note=71 velocity=64 time=48
note_off channel=0 note=74 velocity=64 time=0
note_on channel=0 note=67 velocity=69 time=0
note_on channel=0 note=71 velocity=69 time=0
note_off channel=0 note=67 velocity=64 time=48
note_off channel=0 note=71 velocity=64 time=0
note_on channel=0 note=69 velocity=80 time=24
note_off channel=0 note=69 velocity=64 time=21
note_on channel=0 note=69 velocity=79 time=3
note_on channel=0 note=72 velocity=79 time=0
note_off channel=0 note=69 velocity=64 time=24
note_off channel=0 note=72 velocity=64 time=0
note_on channel=0 note=71 velocity=65 time=0
note_on channel=0 note=74 velocity=65 time=0
note_off channel=0 note=71 velocity=64 time=24
note_off channel=0 note=74 velocity=64 time=0
note_on channel=0 note=72 velocity=76 time=0
note_on channel=0 note=76 velocity=76 time=0
note_off channel=0 note=72 velocity=64 time=48
note_off channel=0 note=76 velocity=64 time=0
note_on channel=0 note=69 velocity=68 time=0
note_on channel=0 note=72 velocity=68 time=0
note_off channel=0 note=69 velocity=64 time=43
note_off channel=0 note=72 velocity=64 time=5
note_on channel=0 note=69 velocity=80 time=24
note_off channel=0 note=69 velocity=64 time=21
note_on channel=0 note=72 velocity=83 time=3
note_on channel=0 note=76 velocity=83 time=0
note_off channel=0 note=72 velocity=64 time=24
note_off channel=0 note=76 velocity=64 time=0
note_on channel=0 note=71 velocity=65 time=0
note_on channel=0 note=74 velocity=65 time=0
note_off channel=0 note=71 velocity=64 time=24
note_off channel=0 note=74 velocity=64 time=0
note_on channel=0 note=72 velocity=79 time=0
note_on channel=0 note=69 velocity=79 time=0
note_off channel=0 note=72 velocity=64 time=48
note_off channel=0 note=69 velocity=64 time=0
note_on channel=0 note=71 velocity=76 time=0
note_on channel=0 note=67 velocity=76 time=0
note_off channel=0 note=71 velocity=64 time=48
note_off channel=0 note=67 velocity=64 time=0
note_on channel=0 note=65 velocity=80 time=24
note_off channel=0 note=65 velocity=64 time=21
note_on channel=0 note=69 velocity=81 time=3
note_on channel=0 note=65 velocity=81 time=0
note_off channel=0 note=69 velocity=64 time=24
note_off channel=0 note=65 velocity=64 time=0
note_on channel=0 note=71 velocity=69 time=0
note_on channel=0 note=67 velocity=69 time=0
note_off channel=0 note=71 velocity=64 time=24
note_off channel=0 note=67 velocity=64 time=0
note_on channel=0 note=72 velocity=77 time=0
note_on channel=0 note=69 velocity=77 time=0
note_off channel=0 note=72 velocity=64 time=48
note_off channel=0 note=69 velocity=64 time=0
note_on channel=0 note=69 velocity=83 time=0
note_on channel=0 note=65 velocity=83 time=0
note_off channel=0 note=69 velocity=64 time=48
note_off channel=0 note=65 velocity=64 time=0
note_on channel=0 note=64 velocity=80 time=24
note_off channel=0 note=64 velocity=64 time=21
note_on channel=0 note=67 velocity=85 time=3
note_on channel=0 note=64 velocity=85 time=0
note_off channel=0 note=67 velocity=64 time=24
note_off channel=0 note=64 velocity=64 time=0
note_on channel=0 note=69 velocity=75 time=0
note_on channel=0 note=65 velocity=75 time=0
note_off channel=0 note=69 velocity=64 time=24
note_off channel=0 note=65 velocity=64 time=0
note_on channel=0 note=69 velocity=77 time=0
note_on channel=0 note=65 velocity=77 time=0
note_on channel=0 note=72 velocity=82 time=11
note_off channel=0 note=69 velocity=64 time=37
note_off channel=0 note=65 velocity=64 time=0
note_on channel=0 note=67 velocity=91 time=0
note_on channel=0 note=64 velocity=91 time=0
note_off channel=0 note=72 velocity=64 time=11
note_off channel=0 note=67 velocity=64 time=37
note_off channel=0 note=64 velocity=64 time=0
note_on channel=0 note=69 velocity=77 time=24
note_on channel=0 note=65 velocity=77 time=0
note_off channel=0 note=69 velocity=64 time=24
note_off channel=0 note=65 velocity=64 time=0
note_on channel=0 note=71 velocity=80 time=0
note_on channel=0 note=67 velocity=80 time=0
note_off channel=0 note=71 velocity=64 time=24
note_off channel=0 note=67 velocity=64 time=0
note_on channel=0 note=71 velocity=80 time=0
note_on channel=0 note=67 velocity=80 time=0
note_off channel=0 note=71 velocity=64 time=24
note_off channel=0 note=67 velocity=64 time=0
note_on channel=0 note=72 velocity=76 time=0
note_on channel=0 note=69 velocity=76 time=0
note_off channel=0 note=72 velocity=64 time=48
note_off channel=0 note=69 velocity=64 time=0
note_on channel=0 note=69 velocity=85 time=0
note_on channel=0 note=65 velocity=85 time=0
note_off channel=0 note=69 velocity=64 time=24
note_off channel=0 note=65 velocity=64 time=0
note_on channel=0 note=67 velocity=82 time=0
note_off channel=0 note=67 velocity=64 time=48
note_on channel=0 note=67 velocity=76 time=0
note_off channel=0 note=67 velocity=64 time=24
note_on channel=0 note=71 velocity=81 time=0
note_on channel=0 note=67 velocity=81 time=0
note_off channel=0 note=71 velocity=64 time=24
note_off channel=0 note=67 velocity=64 time=0
note_on channel=0 note=72 velocity=70 time=0
note_on channel=0 note=69 velocity=70 time=0
note_off channel=0 note=72 velocity=64 time=24
note_off channel=0 note=69 velocity=64 time=0
note_on channel=0 note=74 velocity=76 time=0
note_on channel=0 note=71 velocity=76 time=0
note_off channel=0 note=74 velocity=64 time=48
note_off channel=0 note=71 velocity=64 time=0
note_on channel=0 note=71 velocity=80 time=0
note_on channel=0 note=67 velocity=80 time=0
note_off channel=0 note=71 velocity=64 time=21
note_off channel=0 note=67 velocity=64 time=0
note_on channel=0 note=67 velocity=80 time=3
note_off channel=0 note=67 velocity=64 time=21
note_on channel=0 note=72 velocity=82 time=51
note_on channel=0 note=76 velocity=82 time=0
note_off channel=0 note=72 velocity=64 time=24
note_off channel=0 note=76 velocity=64 time=0
note_on channel=0 note=74 velocity=77 time=0
note_on channel=0 note=77 velocity=77 time=0
note_off channel=0 note=74 velocity=64 time=24
note_off channel=0 note=77 velocity=64 time=0
note_on channel=0 note=76 velocity=82 time=0
note_on channel=0 note=79 velocity=82 time=0
note_off channel=0 note=76 velocity=64 time=48
note_off channel=0 note=79 velocity=64 time=0
note_on channel=0 note=72 velocity=85 time=0
note_on channel=0 note=76 velocity=85 time=0
note_off channel=0 note=72 velocity=64 time=40
note_off channel=0 note=76 velocity=64 time=0
note_on channel=0 note=71 velocity=95 time=56
note_on channel=0 note=74 velocity=95 time=0
note_off channel=0 note=71 velocity=64 time=24
note_off channel=0 note=74 velocity=64 time=0
note_on channel=0 note=72 velocity=90 time=0
note_on channel=0 note=76 velocity=90 time=0
note_off channel=0 note=72 velocity=64 time=24
note_off channel=0 note=76 velocity=64 time=0
note_on channel=0 note=74 velocity=90 time=0
note_on channel=0 note=77 velocity=100 time=0
note_off channel=0 note=74 velocity=64 time=24
note_off channel=0 note=77 velocity=64 time=0
note_on channel=0 note=71 velocity=85 time=0
note_off channel=0 note=71 velocity=64 time=24
note_on channel=0 note=76 velocity=100 time=0
note_off channel=0 note=76 velocity=64 time=24
note_on channel=0 note=74 velocity=77 time=0
note_off channel=0 note=74 velocity=64 time=24
note_on channel=0 note=69 velocity=87 time=24
note_off channel=0 note=69 velocity=64 time=24
note_on channel=0 note=69 velocity=90 time=0
note_on channel=0 note=72 velocity=100 time=0
note_off channel=0 note=69 velocity=64 time=24
note_off channel=0 note=72 velocity=64 time=0
note_on channel=0 note=71 velocity=75 time=0
note_on channel=0 note=74 velocity=75 time=0
note_off channel=0 note=71 velocity=64 time=24
note_off channel=0 note=74 velocity=64 time=0
note_on channel=0 note=72 velocity=100 time=0
note_on channel=0 note=76 velocity=105 time=0
note_off channel=0 note=72 velocity=64 time=48
note_off channel=0 note=76 velocity=64 time=0
note_on channel=0 note=72 velocity=105 time=0
note_off channel=0 note=72 velocity=64 time=24
note_on channel=0 note=71 velocity=85 time=0
note_off channel=0 note=71 velocity=64 time=48
note_on channel=0 note=71 velocity=85 time=0
note_off channel=0 note=71 velocity=64 time=24
note_on channel=0 note=79 velocity=103 time=0
note_on channel=0 note=77 velocity=81 time=24
note_off channel=0 note=79 velocity=64 time=24
note_off channel=0 note=77 velocity=64 time=0
note_on channel=0 note=76 velocity=80 time=0
note_off channel=0 note=76 velocity=64 time=43
note_on channel=0 note=76 velocity=105 time=5
note_on channel=0 note=79 velocity=105 time=0
note_off channel=0 note=76 velocity=64 time=24
note_off channel=0 note=79 velocity=64 time=0
note_on channel=0 note=72 velocity=80 time=0
note_off channel=0 note=72 velocity=64 time=24
note_on channel=0 note=77 velocity=105 time=0
note_on channel=0 note=81 velocity=105 time=0
note_off channel=0 note=77 velocity=64 time=24
note_off channel=0 note=81 velocity=64 time=0
note_on channel=0 note=72 velocity=85 time=0
note_off channel=0 note=72 velocity=64 time=24
note_on channel=0 note=81 velocity=103 time=0
note_off channel=0 note=81 velocity=64 time=24
note_on channel=0 note=79 velocity=92 time=0
note_off channel=0 note=79 velocity=64 time=24
note_on channel=0 note=77 velocity=80 time=0
note_off channel=0 note=77 velocity=64 time=43
note_on channel=0 note=77 velocity=105 time=5
note_on channel=0 note=81 velocity=105 time=0
note_off channel=0 note=77 velocity=64 time=24
note_off channel=0 note=81 velocity=64 time=0
note_on channel=0 note=72 velocity=80 time=0
note_off channel=0 note=72 velocity=64 time=21
note_on channel=0 note=76 velocity=106 time=3
note_on channel=0 note=79 velocity=106 time=0
note_off channel=0 note=76 velocity=64 time=24
note_off channel=0 note=79 velocity=64 time=0
note_on channel=0 note=72 velocity=80 time=0
note_off channel=0 note=72 velocity=64 time=24
note_on channel=0 note=79 velocity=107 time=0
note_off channel=0 note=79 velocity=64 time=24
note_on channel=0 note=77 velocity=87 time=0
note_off channel=0 note=77 velocity=64 time=24
note_on channel=0 note=76 velocity=80 time=0
note_off channel=0 note=76 velocity=64 time=43
note_on channel=0 note=76 velocity=108 time=5
note_on channel=0 note=79 velocity=108 time=0
note_off channel=0 note=76 velocity=64 time=24
note_off channel=0 note=79 velocity=64 time=0
note_on channel=0 note=72 velocity=87 time=0
note_off channel=0 note=72 velocity=64 time=24
note_on channel=0 note=72 velocity=80 time=0
note_on channel=0 note=81 velocity=111 time=0
note_off channel=0 note=72 velocity=64 time=21
note_off channel=0 note=81 velocity=64 time=3
note_on channel=0 note=72 velocity=80 time=0
note_on channel=0 note=79 velocity=91 time=0
note_off channel=0 note=72 velocity=64 time=21
note_off channel=0 note=79 velocity=64 time=3
note_on channel=0 note=72 velocity=80 time=0
note_on channel=0 note=77 velocity=90 time=0
note_off channel=0 note=72 velocity=64 time=21
note_off channel=0 note=77 velocity=64 time=3
note_on channel=0 note=72 velocity=80 time=0
note_on channel=0 note=81 velocity=111 time=0
note_off channel=0 note=72 velocity=64 time=21
note_off channel=0 note=81 velocity=64 time=3
note_on channel=0 note=72 velocity=80 time=0
note_on channel=0 note=79 velocity=89 time=0
note_off channel=0 note=72 velocity=64 time=21
note_off channel=0 note=79 velocity=64 time=3
note_on channel=0 note=72 velocity=80 time=0
note_on channel=0 note=77 velocity=105 time=0
note_off channel=0 note=72 velocity=64 time=21
note_off channel=0 note=77 velocity=64 time=3
note_on channel=0 note=72 velocity=80 time=0
note_on channel=0 note=81 velocity=115 time=0
note_off channel=0 note=72 velocity=64 time=21
note_off channel=0 note=81 velocity=64 time=3
note_on channel=0 note=74 velocity=80 time=0
note_on channel=0 note=84 velocity=80 time=0
note_off channel=0 note=74 velocity=64 time=21
note_off channel=0 note=84 velocity=64 time=0
note_on channel=0 note=74 velocity=80 time=3
note_on channel=0 note=83 velocity=122 time=0
note_off channel=0 note=74 velocity=64 time=21
note_off channel=0 note=83 velocity=64 time=3
note_on channel=0 note=74 velocity=80 time=0
note_on channel=0 note=81 velocity=115 time=0
note_off channel=0 note=74 velocity=64 time=21
note_off channel=0 note=81 velocity=64 time=3
note_on channel=0 note=74 velocity=80 time=0
note_on channel=0 note=79 velocity=80 time=0
note_off channel=0 note=74 velocity=64 time=21
note_off channel=0 note=79 velocity=64 time=0
note_on channel=0 note=67 velocity=100 time=3
note_off channel=0 note=67 velocity=64 time=24
note_on channel=0 note=71 velocity=104 time=0
note_on channel=0 note=67 velocity=104 time=0
note_off channel=0 note=71 velocity=64 time=24
note_off channel=0 note=67 velocity=64 time=0
note_on channel=0 note=72 velocity=105 time=0
note_on channel=0 note=67 velocity=105 time=0
note_off channel=0 note=72 velocity=64 time=24
note_off channel=0 note=67 velocity=64 time=0
note_on channel=0 note=74 velocity=107 time=0
note_off channel=0 note=74 velocity=64 time=24
note_on channel=0 note=67 velocity=100 time=0
note_off channel=0 note=67 velocity=64 time=24
note_on channel=0 note=76 velocity=119 time=0
note_off channel=0 note=76 velocity=64 time=24
note_on channel=0 note=67 velocity=94 time=0
note_off channel=0 note=67 velocity=64 time=48
note_on channel=0 note=67 velocity=94 time=0
note_off channel=0 note=67 velocity=64 time=24
note_on channel=0 note=67 velocity=121 time=0
note_on channel=0 note=76 velocity=121 time=0
note_off channel=0 note=67 velocity=64 time=24
note_off channel=0 note=76 velocity=64 time=0
note_on channel=0 note=67 velocity=97 time=0
note_on channel=0 note=74 velocity=97 time=0
note_off channel=0 note=67 velocity=64 time=22
note_off channel=0 note=74 velocity=64 time=2
note_on channel=0 note=67 velocity=91 time=0
note_on channel=0 note=72 velocity=108 time=0
note_off channel=0 note=67 velocity=64 time=24
note_off channel=0 note=72 velocity=64 time=0
note_on channel=0 note=67 velocity=115 time=0
note_on channel=0 note=74 velocity=115 time=0
note_off channel=0 note=67 velocity=64 time=48
note_off channel=0 note=74 velocity=64 time=0
note_on channel=0 note=67 velocity=94 time=0
note_off channel=0 note=67 velocity=64 time=48
note_on channel=0 note=76 velocity=115 time=0
note_on channel=0 note=67 velocity=105 time=0
note_on channel=0 note=76 velocity=80 time=21
note_off channel=0 note=67 velocity=64 time=3
note_off channel=0 note=76 velocity=64 time=0
note_on channel=0 note=67 velocity=121 time=0
note_on channel=0 note=77 velocity=121 time=0
note_off channel=0 note=76 velocity=64 time=24
note_off channel=0 note=67 velocity=64 time=0
note_off channel=0 note=77 velocity=64 time=0
note_on channel=0 note=67 velocity=116 time=0
note_on channel=0 note=76 velocity=116 time=0
note_off channel=0 note=67 velocity=64 time=21
note_off channel=0 note=76 velocity=64 time=3
note_on channel=0 note=74 velocity=106 time=0
note_off channel=0 note=74 velocity=64 time=24
note_on channel=0 note=64 velocity=87 time=0
note_off channel=0 note=64 velocity=64 time=24
note_on channel=0 note=72 velocity=97 time=0
note_on channel=0 note=64 velocity=97 time=0
note_off channel=0 note=72 velocity=64 time=72
note_off channel=0 note=64 velocity=64 time=0
note_on channel=0 note=72 velocity=111 time=0
note_on channel=0 note=64 velocity=111 time=0
note_off channel=0 note=72 velocity=64 time=48
note_off channel=0 note=64 velocity=64 time=0
note_on channel=0 note=64 velocity=92 time=0
note_off channel=0 note=64 velocity=64 time=24
note_on channel=0 note=71 velocity=115 time=0
note_on channel=0 note=64 velocity=100 time=0
note_off channel=0 note=71 velocity=64 time=24
note_off channel=0 note=64 velocity=64 time=0
note_on channel=0 note=72 velocity=105 time=0
note_on channel=0 note=64 velocity=90 time=0
note_off channel=0 note=72 velocity=64 time=24
note_off channel=0 note=64 velocity=64 time=0
note_on channel=0 note=71 velocity=115 time=0
note_on channel=0 note=64 velocity=100 time=0
note_off channel=0 note=71 velocity=64 time=48
note_off channel=0 note=64 velocity=64 time=0
note_on channel=0 note=67 velocity=115 time=0
note_off channel=0 note=67 velocity=64 time=24
note_on channel=0 note=64 velocity=96 time=0
note_off channel=0 note=64 velocity=64 time=48
note_on channel=0 note=67 velocity=105 time=0
note_on channel=0 note=60 velocity=85 time=48
note_off channel=0 note=67 velocity=64 time=24
note_off channel=0 note=60 velocity=64 time=0
note_on channel=0 note=69 velocity=111 time=0
note_on channel=0 note=65 velocity=111 time=0
note_off channel=0 note=69 velocity=64 time=24
note_off channel=0 note=65 velocity=64 time=0
note_on channel=0 note=60 velocity=93 time=0
note_off channel=0 note=60 velocity=64 time=48
note_on channel=0 note=71 velocity=94 time=0
note_on channel=0 note=67 velocity=94 time=0
note_on channel=0 note=60 velocity=94 time=0
note_off channel=0 note=71 velocity=64 time=45
note_off channel=0 note=67 velocity=64 time=0
note_off channel=0 note=60 velocity=64 time=0
note_on channel=0 note=60 velocity=75 time=3
note_off channel=0 note=60 velocity=64 time=21
note_on channel=0 note=72 velocity=101 time=3
note_off channel=0 note=72 velocity=64 time=21
note_on channel=0 note=60 velocity=80 time=3
note_off channel=0 note=60 velocity=64 time=21
note_on channel=0 note=67 velocity=91 time=3
note_off channel=0 note=67 velocity=64 time=72
note_on channel=0 note=72 velocity=110 time=0
note_on channel=0 note=67 velocity=110 time=0
note_off channel=0 note=72 velocity=64 time=48
note_off channel=0 note=67 velocity=64 time=0
note_on channel=0 note=72 velocity=102 time=0
note_on channel=0 note=67 velocity=102 time=0
note_off channel=0 note=72 velocity=64 time=24
note_off channel=0 note=67 velocity=64 time=0
note_on channel=0 note=72 velocity=118 time=0
note_on channel=0 note=67 velocity=118 time=0
note_off channel=0 note=72 velocity=64 time=24
note_off channel=0 note=67 velocity=64 time=0
note_on channel=0 note=72 velocity=100 time=0
note_on channel=0 note=67 velocity=100 time=0
note_off channel=0 note=72 velocity=64 time=24
note_off channel=0 note=67 velocity=64 time=0
note_on channel=0 note=69 velocity=109 time=0
note_on channel=0 note=65 velocity=109 time=0
note_off channel=0 note=69 velocity=64 time=24
note_off channel=0 note=65 velocity=64 time=0
note_on channel=0 note=60 velocity=90 time=0
note_off channel=0 note=60 velocity=64 time=48
note_on channel=0 note=60 velocity=95 time=0
note_off channel=0 note=60 velocity=64 time=24
note_on channel=0 note=65 velocity=108 time=0
note_off channel=0 note=65 velocity=64 time=24
note_on channel=0 note=69 velocity=95 time=0
note_off channel=0 note=69 velocity=64 time=24
note_on channel=0 note=72 velocity=104 time=0
note_off channel=0 note=72 velocity=64 time=24
note_on channel=0 note=74 velocity=113 time=0
note_on channel=0 note=62 velocity=113 time=0
note_off channel=0 note=74 velocity=64 time=24
note_off channel=0 note=62 velocity=64 time=0
note_on channel=0 note=71 velocity=106 time=0
note_off channel=0 note=71 velocity=64 time=24
note_on channel=0 note=67 velocity=80 time=0
note_off channel=0 note=67 velocity=64 time=43
note_on channel=0 note=72 velocity=122 time=5
note_on channel=0 note=71 velocity=80 time=0
note_on channel=0 note=62 velocity=122 time=0
note_off channel=0 note=72 velocity=64 time=45
note_off channel=0 note=71 velocity=64 time=0
note_off channel=0 note=62 velocity=64 time=0
note_on channel=0 note=62 velocity=80 time=3
note_off channel=0 note=62 velocity=64 time=21
note_on channel=0 note=74 velocity=120 time=3
note_off channel=0 note=74 velocity=64 time=24
note_on channel=0 note=67 velocity=105 time=0
note_off channel=0 note=67 velocity=64 time=24
note_on channel=0 note=76 velocity=120 time=0
note_off channel=0 note=76 velocity=64 time=24
note_on channel=0 note=67 velocity=99 time=0
note_off channel=0 note=67 velocity=64 time=24
note_on channel=0 note=67 velocity=95 time=24
note_off channel=0 note=67 velocity=64 time=24
note_on channel=0 note=67 velocity=116 time=0
note_on channel=0 note=76 velocity=116 time=0
note_off channel=0 note=67 velocity=64 time=24
note_off channel=0 note=76 velocity=64 time=0
note_on channel=0 note=67 velocity=100 time=0
note_on channel=0 note=74 velocity=100 time=0
note_off channel=0 note=67 velocity=64 time=24
note_off channel=0 note=74 velocity=64 time=0
note_on channel=0 note=67 velocity=86 time=0
note_on channel=0 note=72 velocity=110 time=0
note_off channel=0 note=67 velocity=64 time=21
note_off channel=0 note=72 velocity=64 time=3
note_on channel=0 note=67 velocity=100 time=0
note_on channel=0 note=74 velocity=120 time=0
note_off channel=0 note=67 velocity=64 time=48
note_off channel=0 note=74 velocity=64 time=0
note_on channel=0 note=67 velocity=93 time=0
note_off channel=0 note=67 velocity=64 time=48
note_on channel=0 note=76 velocity=91 time=0
note_on channel=0 note=67 velocity=91 time=0
note_on channel=0 note=76 velocity=80 time=21
note_off channel=0 note=67 velocity=64 time=3
note_off channel=0 note=76 velocity=64 time=0
note_on channel=0 note=67 velocity=124 time=0
note_on channel=0 note=77 velocity=124 time=0
note_off channel=0 note=76 velocity=64 time=24
note_off channel=0 note=67 velocity=64 time=0
note_off channel=0 note=77 velocity=64 time=0
note_on channel=0 note=76 velocity=106 time=0
note_off channel=0 note=76 velocity=64 time=24
note_on channel=0 note=74 velocity=100 time=0
note_off channel=0 note=74 velocity=64 time=24
note_on channel=0 note=64 velocity=82 time=0
note_off channel=0 note=64 velocity=64 time=24
note_on channel=0 note=74 velocity=95 time=0
note_on channel=0 note=64 velocity=76 time=0
note_off channel=0 note=64 velocity=64 time=64
note_off channel=0 note=74 velocity=64 time=8
note_on channel=0 note=72 velocity=115 time=0
note_on channel=0 note=64 velocity=105 time=1
note_off channel=0 note=72 velocity=64 time=47
note_on channel=0 note=64 velocity=89 time=0
note_off channel=0 note=64 velocity=64 time=1
note_off channel=0 note=64 velocity=64 time=23
note_on channel=0 note=71 velocity=110 time=0
note_on channel=0 note=64 velocity=80 time=0
note_off channel=0 note=64 velocity=64 time=21
note_off channel=0 note=71 velocity=64 time=3
note_on channel=0 note=72 velocity=94 time=0
note_on channel=0 note=64 velocity=75 time=1
note_off channel=0 note=64 velocity=64 time=21
note_off channel=0 note=72 velocity=64 time=2
note_on channel=0 note=64 velocity=104 time=0
note_off channel=0 note=64 velocity=64 time=24
note_on channel=0 note=67 velocity=98 time=0
note_off channel=0 note=67 velocity=64 time=24
note_on channel=0 note=71 velocity=103 time=0
note_off channel=0 note=71 velocity=64 time=24
note_on channel=0 note=72 velocity=106 time=0
note_off channel=0 note=72 velocity=64 time=24
note_on channel=0 note=76 velocity=109 time=0
note_off channel=0 note=76 velocity=64 time=24
note_on channel=0 note=79 velocity=121 time=0
note_off channel=0 note=79 velocity=64 time=24
note_on channel=0 note=83 velocity=126 time=0
note_off channel=0 note=83 velocity=64 time=24
note_on channel=0 note=84 velocity=127 time=0
note_off channel=0 note=84 velocity=64 time=24
note_on channel=0 note=83 velocity=126 time=0
note_off channel=0 note=83 velocity=64 time=24
note_on channel=0 note=81 velocity=83 time=0
note_off channel=0 note=81 velocity=64 time=24
note_on channel=0 note=79 velocity=79 time=0
note_off channel=0 note=79 velocity=64 time=24
note_on channel=0 note=77 velocity=78 time=0
note_off channel=0 note=77 velocity=64 time=24
note_on channel=0 note=79 velocity=111 time=0
note_off channel=0 note=79 velocity=64 time=21
note_on channel=0 note=77 velocity=76 time=3
note_off channel=0 note=77 velocity=64 time=21
note_on channel=0 note=76 velocity=74 time=3
note_off channel=0 note=76 velocity=64 time=21
note_on channel=0 note=74 velocity=72 time=3
note_off channel=0 note=74 velocity=64 time=21
note_on channel=0 note=76 velocity=101 time=3
note_on channel=0 note=79 velocity=101 time=0
note_off channel=0 note=79 velocity=64 time=21
note_off channel=0 note=76 velocity=64 time=3
note_on channel=0 note=74 velocity=73 time=0
note_off channel=0 note=74 velocity=64 time=24
note_on channel=0 note=72 velocity=70 time=0
note_off channel=0 note=72 velocity=64 time=24
note_on channel=0 note=71 velocity=68 time=0
note_off channel=0 note=71 velocity=64 time=24
note_on channel=0 note=72 velocity=73 time=0
note_off channel=0 note=72 velocity=64 time=24
note_on channel=0 note=71 velocity=70 time=0
note_off channel=0 note=71 velocity=64 time=24
note_on channel=0 note=69 velocity=71 time=0
note_off channel=0 note=69 velocity=64 time=24
note_on channel=0 note=67 velocity=69 time=0
note_off channel=0 note=67 velocity=64 time=24
note_on channel=0 note=69 velocity=74 time=0
note_off channel=0 note=69 velocity=64 time=24
note_on channel=0 note=67 velocity=72 time=0
note_off channel=0 note=67 velocity=64 time=24
note_on channel=0 note=65 velocity=72 time=0
note_off channel=0 note=65 velocity=64 time=24
note_on channel=0 note=67 velocity=66 time=0
note_off channel=0 note=67 velocity=64 time=24
note_on channel=0 note=69 velocity=82 time=0
note_off channel=0 note=69 velocity=64 time=24
note_on channel=0 note=65 velocity=68 time=0
note_off channel=0 note=65 velocity=64 time=24
note_on channel=0 note=72 velocity=92 time=0
note_off channel=0 note=72 velocity=64 time=24
note_on channel=0 note=67 velocity=73 time=0
note_off channel=0 note=67 velocity=64 time=24
note_on channel=0 note=71 velocity=81 time=0
note_off channel=0 note=71 velocity=64 time=24
note_on channel=0 note=69 velocity=75 time=0
note_off channel=0 note=69 velocity=64 time=24
note_on channel=0 note=67 velocity=67 time=0
note_off channel=0 note=67 velocity=64 time=24
note_on channel=0 note=72 velocity=78 time=0
note_off channel=0 note=72 velocity=64 time=24
note_on channel=0 note=67 velocity=63 time=0
note_off channel=0 note=67 velocity=64 time=24
note_on channel=0 note=67 velocity=77 time=0
note_off channel=0 note=67 velocity=64 time=24
note_on channel=0 note=74 velocity=92 time=0
note_off channel=0 note=74 velocity=64 time=24
note_on channel=0 note=67 velocity=74 time=0
note_off channel=0 note=67 velocity=64 time=24
note_on channel=0 note=76 velocity=93 time=0
note_off channel=0 note=76 velocity=64 time=24
note_on channel=0 note=67 velocity=75 time=0
note_off channel=0 note=67 velocity=64 time=24
note_on channel=0 note=67 velocity=61 time=0
note_off channel=0 note=67 velocity=64 time=24
note_on channel=0 note=67 velocity=82 time=0
note_off channel=0 note=67 velocity=64 time=24
note_on channel=0 note=76 velocity=94 time=0
note_off channel=0 note=76 velocity=64 time=24
note_on channel=0 note=67 velocity=77 time=0
note_off channel=0 note=67 velocity=64 time=24
note_on channel=0 note=77 velocity=90 time=0
note_off channel=0 note=77 velocity=64 time=24
note_on channel=0 note=67 velocity=99 time=0
note_off channel=0 note=67 velocity=64 time=24
note_on channel=0 note=71 velocity=93 time=0
note_on channel=0 note=79 velocity=93 time=0
note_off channel=0 note=71 velocity=64 time=24
note_off channel=0 note=79 velocity=64 time=0
note_on channel=0 note=69 velocity=66 time=0
note_off channel=0 note=69 velocity=64 time=20
note_on channel=0 note=72 velocity=95 time=4
note_on channel=0 note=81 velocity=95 time=0
note_on channel=0 note=67 velocity=67 time=24
note_off channel=0 note=72 velocity=64 time=6
note_off channel=0 note=81 velocity=64 time=2
note_off channel=0 note=67 velocity=64 time=6
note_on channel=0 note=71 velocity=80 time=10
note_on channel=0 note=79 velocity=98 time=0
note_on channel=0 note=67 velocity=80 time=24
note_off channel=0 note=71 velocity=64 time=2
note_off channel=0 note=79 velocity=64 time=2
note_off channel=0 note=67 velocity=64 time=10
note_on channel=0 note=77 velocity=94 time=10
note_on channel=0 note=64 velocity=80 time=24
note_off channel=0 note=77 velocity=64 time=24
note_off channel=0 note=64 velocity=64 time=0
note_on channel=0 note=76 velocity=100 time=0
note_on channel=0 note=72 velocity=90 time=0
note_on channel=0 note=69 velocity=100 time=0
note_off channel=0 note=76 velocity=64 time=24
note_off channel=0 note=72 velocity=64 time=0
note_off channel=0 note=69 velocity=64 time=0
note_on channel=0 note=64 velocity=78 time=0
note_off channel=0 note=64 velocity=64 time=48
note_on channel=0 note=64 velocity=85 time=0
note_off channel=0 note=64 velocity=64 time=24
note_on channel=0 note=72 velocity=101 time=0
note_on channel=0 note=64 velocity=101 time=0
note_off channel=0 note=72 velocity=64 time=24
note_off channel=0 note=64 velocity=64 time=0
note_on channel=0 note=72 velocity=100 time=0
note_on channel=0 note=64 velocity=90 time=0
note_off channel=0 note=72 velocity=64 time=24
note_off channel=0 note=64 velocity=64 time=0
note_on channel=0 note=74 velocity=100 time=0
note_off channel=0 note=74 velocity=64 time=24
note_on channel=0 note=64 velocity=81 time=0
note_off channel=0 note=64 velocity=64 time=24
note_on channel=0 note=76 velocity=97 time=0
note_on channel=0 note=67 velocity=97 time=0
note_off channel=0 note=76 velocity=64 time=24
note_off channel=0 note=67 velocity=64 time=0
note_on channel=0 note=65 velocity=83 time=0
note_off channel=0 note=65 velocity=64 time=24
note_on channel=0 note=77 velocity=102 time=0
note_off channel=0 note=77 velocity=64 time=24
note_on channel=0 note=64 velocity=87 time=0
note_off channel=0 note=64 velocity=64 time=24
note_on channel=0 note=76 velocity=93 time=0
note_off channel=0 note=76 velocity=64 time=21
note_on channel=0 note=64 velocity=77 time=3
note_off channel=0 note=64 velocity=64 time=21
note_on channel=0 note=74 velocity=85 time=3
note_off channel=0 note=74 velocity=64 time=21
note_on channel=0 note=60 velocity=94 time=3
note_off channel=0 note=60 velocity=64 time=21
note_on channel=0 note=72 velocity=108 time=3
note_on channel=0 note=69 velocity=108 time=0
note_on channel=0 note=65 velocity=108 time=0
note_off channel=0 note=72 velocity=64 time=24
note_off channel=0 note=69 velocity=64 time=0
note_off channel=0 note=65 velocity=64 time=0
note_on channel=0 note=60 velocity=86 time=0
note_off channel=0 note=60 velocity=64 time=48
note_on channel=0 note=60 velocity=93 time=0
note_off channel=0 note=60 velocity=64 time=24
note_on channel=0 note=69 velocity=112 time=0
note_on channel=0 note=60 velocity=97 time=0
note_off channel=0 note=60 velocity=64 time=21
note_off channel=0 note=69 velocity=64 time=3
note_on channel=0 note=71 velocity=92 time=0
note_off channel=0 note=71 velocity=64 time=24
note_on channel=0 note=72 velocity=90 time=0
note_off channel=0 note=72 velocity=64 time=24
note_on channel=0 note=72 velocity=112 time=0
note_on channel=0 note=67 velocity=112 time=0
note_on channel=0 note=60 velocity=112 time=0
note_off channel=0 note=72 velocity=64 time=48
note_off channel=0 note=67 velocity=64 time=0
note_off channel=0 note=60 velocity=64 time=0
note_on channel=0 note=72 velocity=93 time=0
note_off channel=0 note=72 velocity=64 time=24
note_on channel=0 note=71 velocity=108 time=0
note_off channel=0 note=71 velocity=64 time=24
note_on channel=0 note=72 velocity=99 time=0
note_off channel=0 note=72 velocity=64 time=24
note_on channel=0 note=67 velocity=80 time=0
note_off channel=0 note=67 velocity=64 time=21
note_on channel=0 note=72 velocity=91 time=3
note_off channel=0 note=72 velocity=64 time=24
note_on channel=0 note=71 velocity=104 time=0
note_off channel=0 note=71 velocity=64 time=24
note_on channel=0 note=72 velocity=107 time=0
note_off channel=0 note=72 velocity=64 time=24
note_on channel=0 note=65 velocity=115 time=0
note_on channel=0 note=69 velocity=103 time=0
note_off channel=0 note=65 velocity=64 time=24
note_off channel=0 note=69 velocity=64 time=0
note_on channel=0 note=72 velocity=90 time=0
note_off channel=0 note=72 velocity=64 time=24
note_on channel=0 note=71 velocity=98 time=0
note_off channel=0 note=71 velocity=64 time=24
note_on channel=0 note=72 velocity=100 time=0
note_off channel=0 note=72 velocity=64 time=24
note_on channel=0 note=65 velocity=110 time=0
note_on channel=0 note=69 velocity=100 time=0
note_off channel=0 note=65 velocity=64 time=24
note_off channel=0 note=69 velocity=64 time=0
note_on channel=0 note=72 velocity=91 time=0
note_off channel=0 note=72 velocity=64 time=24
note_on channel=0 note=71 velocity=96 time=0
note_off channel=0 note=71 velocity=64 time=24
note_on channel=0 note=72 velocity=102 time=0
note_off channel=0 note=72 velocity=64 time=24
note_on channel=0 note=71 velocity=111 time=0
note_on channel=0 note=62 velocity=111 time=0
note_off channel=0 note=71 velocity=64 time=24
note_off channel=0 note=62 velocity=64 time=0
note_on channel=0 note=67 velocity=117 time=0
note_off channel=0 note=67 velocity=64 time=24
note_on channel=0 note=62 velocity=94 time=0
note_off channel=0 note=62 velocity=64 time=24
note_on channel=0 note=72 velocity=117 time=0
note_on channel=0 note=62 velocity=117 time=0
note_off channel=0 note=72 velocity=64 time=45
note_off channel=0 note=62 velocity=64 time=0
note_on channel=0 note=62 velocity=96 time=3
note_off channel=0 note=62 velocity=64 time=21
note_on channel=0 note=74 velocity=118 time=3
note_on channel=0 note=71 velocity=118 time=0
note_off channel=0 note=74 velocity=64 time=21
note_off channel=0 note=71 velocity=64 time=0
note_on channel=0 note=67 velocity=91 time=3
note_off channel=0 note=67 velocity=64 time=21
note_on channel=0 note=76 velocity=114 time=3
note_on channel=0 note=72 velocity=114 time=0
note_off channel=0 note=76 velocity=64 time=24
note_off channel=0 note=72 velocity=64 time=0
note_on channel=0 note=67 velocity=78 time=0
note_off channel=0 note=67 velocity=64 time=43
note_on channel=0 note=67 velocity=88 time=5
note_off channel=0 note=67 velocity=64 time=24
note_on channel=0 note=76 velocity=108 time=0
note_on channel=0 note=72 velocity=108 time=0
note_on channel=0 note=67 velocity=108 time=0
note_off channel=0 note=76 velocity=64 time=24
note_off channel=0 note=72 velocity=64 time=0
note_off channel=0 note=67 velocity=64 time=0
note_on channel=0 note=67 velocity=86 time=0
note_off channel=0 note=67 velocity=64 time=24
note_on channel=0 note=77 velocity=113 time=0
note_on channel=0 note=74 velocity=105 time=0
note_off channel=0 note=74 velocity=64 time=21
note_off channel=0 note=77 velocity=64 time=3
note_on channel=0 note=67 velocity=86 time=0
note_off channel=0 note=67 velocity=64 time=24
note_on channel=0 note=71 velocity=111 time=0
note_on channel=0 note=79 velocity=111 time=0
note_off channel=0 note=71 velocity=64 time=24
note_off channel=0 note=79 velocity=64 time=0
note_on channel=0 note=69 velocity=91 time=0
note_off channel=0 note=69 velocity=64 time=24
note_on channel=0 note=72 velocity=118 time=0
note_on channel=0 note=81 velocity=118 time=0
note_off channel=0 note=72 velocity=64 time=48
note_off channel=0 note=81 velocity=64 time=0
note_on channel=0 note=71 velocity=111 time=0
note_on channel=0 note=79 velocity=111 time=0
note_off channel=0 note=71 velocity=64 time=21
note_off channel=0 note=79 velocity=64 time=0
note_on channel=0 note=67 velocity=80 time=3
note_off channel=0 note=67 velocity=64 time=21
note_on channel=0 note=77 velocity=98 time=3
note_off channel=0 note=77 velocity=64 time=21
note_on channel=0 note=64 velocity=75 time=3
note_off channel=0 note=64 velocity=64 time=21
note_on channel=0 note=76 velocity=104 time=3
note_on channel=0 note=72 velocity=104 time=0
note_off channel=0 note=76 velocity=64 time=24
note_off channel=0 note=72 velocity=64 time=0
note_on channel=0 note=64 velocity=83 time=0
note_off channel=0 note=64 velocity=64 time=48
note_on channel=0 note=64 velocity=90 time=0
note_off channel=0 note=64 velocity=64 time=24
note_on channel=0 note=72 velocity=104 time=0
note_on channel=0 note=64 velocity=104 time=0
note_off channel=0 note=72 velocity=64 time=24
note_off channel=0 note=64 velocity=64 time=0
note_on channel=0 note=72 velocity=108 time=0
note_on channel=0 note=64 velocity=108 time=0
note_off channel=0 note=72 velocity=64 time=24
note_off channel=0 note=64 velocity=64 time=0
note_on channel=0 note=74 velocity=115 time=0
note_off channel=0 note=74 velocity=64 time=24
note_on channel=0 note=64 velocity=90 time=0
note_off channel=0 note=64 velocity=64 time=24
note_on channel=0 note=76 velocity=107 time=0
note_on channel=0 note=67 velocity=107 time=0
note_off channel=0 note=76 velocity=64 time=24
note_off channel=0 note=67 velocity=64 time=0
note_on channel=0 note=65 velocity=90 time=0
note_off channel=0 note=65 velocity=64 time=24
note_on channel=0 note=77 velocity=114 time=0
note_off channel=0 note=77 velocity=64 time=24
note_on channel=0 note=64 velocity=85 time=0
note_off channel=0 note=64 velocity=64 time=16
note_on channel=0 note=76 velocity=108 time=8
note_on channel=0 note=67 velocity=108 time=0
note_off channel=0 note=76 velocity=64 time=21
note_off channel=0 note=67 velocity=64 time=0
note_on channel=0 note=64 velocity=84 time=3
note_off channel=0 note=64 velocity=64 time=21
note_on channel=0 note=74 velocity=103 time=3
note_off channel=0 note=74 velocity=64 time=21
note_on channel=0 note=60 velocity=85 time=3
note_off channel=0 note=60 velocity=64 time=21
note_on channel=0 note=72 velocity=108 time=3
note_on channel=0 note=69 velocity=108 time=0
note_on channel=0 note=65 velocity=108 time=0
note_off channel=0 note=72 velocity=64 time=24
note_off channel=0 note=69 velocity=64 time=0
note_off channel=0 note=65 velocity=64 time=0
note_on channel=0 note=60 velocity=86 time=0
note_off channel=0 note=60 velocity=64 time=48
note_on channel=0 note=60 velocity=93 time=0
note_off channel=0 note=60 velocity=64 time=24
note_on channel=0 note=69 velocity=112 time=0
note_on channel=0 note=60 velocity=97 time=0
note_off channel=0 note=60 velocity=64 time=21
note_off channel=0 note=69 velocity=64 time=3
note_on channel=0 note=71 velocity=92 time=0
note_off channel=0 note=71 velocity=64 time=24
note_on channel=0 note=72 velocity=90 time=0
note_off channel=0 note=72 velocity=64 time=24
note_on channel=0 note=72 velocity=112 time=0
note_on channel=0 note=67 velocity=112 time=0
note_on channel=0 note=60 velocity=112 time=0
note_off channel=0 note=72 velocity=64 time=48
note_off channel=0 note=67 velocity=64 time=0
note_off channel=0 note=60 velocity=64 time=0
note_on channel=0 note=72 velocity=93 time=0
note_off channel=0 note=72 velocity=64 time=24
note_on channel=0 note=71 velocity=108 time=0
note_off channel=0 note=71 velocity=64 time=24
note_on channel=0 note=72 velocity=99 time=0
note_off channel=0 note=72 velocity=64 time=24
note_on channel=0 note=67 velocity=80 time=0
note_off channel=0 note=67 velocity=64 time=21
note_on channel=0 note=72 velocity=91 time=3
note_off channel=0 note=72 velocity=64 time=24
note_on channel=0 note=71 velocity=104 time=0
note_off channel=0 note=71 velocity=64 time=24
note_on channel=0 note=72 velocity=107 time=0
note_off channel=0 note=72 velocity=64 time=24
note_on channel=0 note=65 velocity=115 time=0
note_on channel=0 note=69 velocity=103 time=0
note_off channel=0 note=65 velocity=64 time=24
note_off channel=0 note=69 velocity=64 time=0
note_on channel=0 note=72 velocity=90 time=0
note_off channel=0 note=72 velocity=64 time=24
note_on channel=0 note=71 velocity=98 time=0
note_off channel=0 note=71 velocity=64 time=24
note_on channel=0 note=72 velocity=100 time=0
note_off channel=0 note=72 velocity=64 time=24
note_on channel=0 note=65 velocity=110 time=0
note_on channel=0 note=69 velocity=100 time=0
note_off channel=0 note=65 velocity=64 time=24
note_off channel=0 note=69 velocity=64 time=0
note_on channel=0 note=72 velocity=91 time=0
note_off channel=0 note=72 velocity=64 time=24
note_on channel=0 note=71 velocity=96 time=0
note_off channel=0 note=71 velocity=64 time=24
note_on channel=0 note=72 velocity=102 time=0
note_off channel=0 note=72 velocity=64 time=24
note_on channel=0 note=71 velocity=111 time=0
note_on channel=0 note=62 velocity=111 time=0
note_off channel=0 note=71 velocity=64 time=24
note_off channel=0 note=62 velocity=64 time=0
note_on channel=0 note=67 velocity=117 time=0
note_off channel=0 note=67 velocity=64 time=24
note_on channel=0 note=62 velocity=94 time=0
note_off channel=0 note=62 velocity=64 time=24
note_on channel=0 note=72 velocity=117 time=0
note_on channel=0 note=62 velocity=117 time=0
note_off channel=0 note=72 velocity=64 time=45
note_off channel=0 note=62 velocity=64 time=0
note_on channel=0 note=62 velocity=96 time=3
note_off channel=0 note=62 velocity=64 time=21
note_on channel=0 note=74 velocity=118 time=3
note_on channel=0 note=71 velocity=118 time=0
note_off channel=0 note=74 velocity=64 time=21
note_off channel=0 note=71 velocity=64 time=0
note_on channel=0 note=67 velocity=91 time=3
note_off channel=0 note=67 velocity=64 time=21
note_on channel=0 note=76 velocity=121 time=3
note_off channel=0 note=76 velocity=64 time=24
note_on channel=0 note=67 velocity=85 time=0
note_off channel=0 note=67 velocity=64 time=43
note_on channel=0 note=67 velocity=88 time=5
note_off channel=0 note=67 velocity=64 time=24
note_on channel=0 note=76 velocity=117 time=0
note_on channel=0 note=72 velocity=117 time=0
note_on channel=0 note=67 velocity=117 time=0
note_off channel=0 note=76 velocity=64 time=24
note_off channel=0 note=72 velocity=64 time=0
note_off channel=0 note=67 velocity=64 time=0
note_on channel=0 note=76 velocity=115 time=0
note_on channel=0 note=72 velocity=80 time=0
note_on channel=0 note=67 velocity=110 time=0
note_off channel=0 note=76 velocity=64 time=24
note_off channel=0 note=72 velocity=64 time=0
note_off channel=0 note=67 velocity=64 time=0
note_on channel=0 note=77 velocity=124 time=0
note_on channel=0 note=72 velocity=124 time=0
note_on channel=0 note=67 velocity=93 time=0
note_off channel=0 note=77 velocity=64 time=24
note_off channel=0 note=72 velocity=64 time=0
note_off channel=0 note=67 velocity=64 time=0
note_on channel=0 note=67 velocity=92 time=0
note_off channel=0 note=67 velocity=64 time=24
note_on channel=0 note=71 velocity=121 time=0
note_on channel=0 note=79 velocity=121 time=0
note_off channel=0 note=71 velocity=64 time=24
note_off channel=0 note=79 velocity=64 time=0
note_on channel=0 note=69 velocity=99 time=0
note_off channel=0 note=69 velocity=64 time=24
note_on channel=0 note=72 velocity=125 time=0
note_on channel=0 note=81 velocity=125 time=0
note_off channel=0 note=72 velocity=64 time=24
note_off channel=0 note=81 velocity=64 time=0
note_on channel=0 note=67 velocity=90 time=0
note_off channel=0 note=67 velocity=64 time=24
note_on channel=0 note=79 velocity=127 time=0
note_on channel=0 note=71 velocity=127 time=0
note_off channel=0 note=79 velocity=64 time=21
note_off channel=0 note=71 velocity=64 time=0
note_on channel=0 note=67 velocity=84 time=3
note_off channel=0 note=67 velocity=64 time=21
note_on channel=0 note=77 velocity=118 time=3
note_on channel=0 note=69 velocity=118 time=0
note_off channel=0 note=77 velocity=64 time=21
note_off channel=0 note=69 velocity=64 time=0
note_on channel=0 note=64 velocity=83 time=3
note_off channel=0 note=64 velocity=64 time=21
note_on channel=0 note=71 velocity=125 time=2
note_on channel=0 note=72 velocity=125 time=1
note_on channel=0 note=76 velocity=125 time=2
note_off channel=0 note=71 velocity=64 time=21
note_off channel=0 note=72 velocity=64 time=1
note_on channel=0 note=64 velocity=95 time=0
note_off channel=0 note=76 velocity=64 time=2
note_off channel=0 note=64 velocity=64 time=46
note_on channel=0 note=64 velocity=103 time=0
note_off channel=0 note=64 velocity=64 time=24
note_on channel=0 note=72 velocity=117 time=0
note_on channel=0 note=64 velocity=103 time=0
note_off channel=0 note=72 velocity=64 time=24
note_off channel=0 note=64 velocity=64 time=0
note_on channel=0 note=72 velocity=119 time=0
note_on channel=0 note=64 velocity=111 time=1
note_off channel=0 note=72 velocity=64 time=23
note_on channel=0 note=74 velocity=120 time=0
note_off channel=0 note=64 velocity=64 time=1
note_off channel=0 note=74 velocity=64 time=23
note_on channel=0 note=64 velocity=94 time=0
note_off channel=0 note=64 velocity=64 time=24
note_on channel=0 note=76 velocity=120 time=0
note_on channel=0 note=67 velocity=120 time=0
note_off channel=0 note=76 velocity=64 time=24
note_off channel=0 note=67 velocity=64 time=0
note_on channel=0 note=65 velocity=103 time=0
note_off channel=0 note=65 velocity=64 time=24
note_on channel=0 note=77 velocity=118 time=0
note_off channel=0 note=77 velocity=64 time=24
note_on channel=0 note=64 velocity=101 time=0
note_off channel=0 note=64 velocity=64 time=24
note_on channel=0 note=76 velocity=122 time=0
note_on channel=0 note=70 velocity=126 time=0
note_off channel=0 note=76 velocity=64 time=21
note_off channel=0 note=70 velocity=64 time=0
note_on channel=0 note=64 velocity=90 time=3
note_off channel=0 note=64 velocity=64 time=21
note_on channel=0 note=74 velocity=122 time=3
note_off channel=0 note=74 velocity=64 time=21
note_on channel=0 note=65 velocity=108 time=3
note_off channel=0 note=65 velocity=64 time=21
note_on channel=0 note=72 velocity=127 time=3
note_on channel=0 note=69 velocity=127 time=0
note_on channel=0 note=65 velocity=101 time=0
note_off channel=0 note=72 velocity=64 time=24
note_off channel=0 note=69 velocity=64 time=0
note_off channel=0 note=65 velocity=64 time=0
note_on channel=0 note=65 velocity=106 time=0
note_off channel=0 note=65 velocity=64 time=43
note_on channel=0 note=65 velocity=95 time=5
note_off channel=0 note=65 velocity=64 time=24
note_on channel=0 note=69 velocity=119 time=0
note_on channel=0 note=65 velocity=119 time=0
note_off channel=0 note=65 velocity=64 time=21
note_off channel=0 note=69 velocity=64 time=3
note_on channel=0 note=71 velocity=100 time=0
note_off channel=0 note=71 velocity=64 time=24
note_on channel=0 note=72 velocity=109 time=0
note_off channel=0 note=72 velocity=64 time=24
note_on channel=0 note=72 velocity=124 time=0
note_on channel=0 note=67 velocity=124 time=0
note_on channel=0 note=64 velocity=124 time=0
note_off channel=0 note=72 velocity=64 time=48
note_off channel=0 note=67 velocity=64 time=0
note_off channel=0 note=64 velocity=64 time=0
note_on channel=0 note=72 velocity=105 time=0
note_off channel=0 note=72 velocity=64 time=24
note_on channel=0 note=71 velocity=112 time=0
note_off channel=0 note=71 velocity=64 time=24
note_on channel=0 note=72 velocity=113 time=0
note_off channel=0 note=72 velocity=64 time=24
note_on channel=0 note=64 velocity=120 time=0
note_on channel=0 note=67 velocity=120 time=0
note_off channel=0 note=64 velocity=64 time=24
note_off channel=0 note=67 velocity=64 time=0
note_on channel=0 note=72 velocity=103 time=0
note_off channel=0 note=72 velocity=64 time=24
note_on channel=0 note=71 velocity=106 time=0
note_off channel=0 note=71 velocity=64 time=24
note_on channel=0 note=72 velocity=111 time=0
note_off channel=0 note=72 velocity=64 time=24
note_on channel=0 note=65 velocity=124 time=0
note_on channel=0 note=69 velocity=117 time=0
note_off channel=0 note=65 velocity=64 time=24
note_off channel=0 note=69 velocity=64 time=0
note_on channel=0 note=72 velocity=107 time=0
note_off channel=0 note=72 velocity=64 time=24
note_on channel=0 note=71 velocity=100 time=0
note_off channel=0 note=71 velocity=64 time=24
note_on channel=0 note=72 velocity=113 time=0
note_off channel=0 note=72 velocity=64 time=24
note_on channel=0 note=65 velocity=124 time=0
note_on channel=0 note=69 velocity=116 time=0
note_off channel=0 note=65 velocity=64 time=24
note_off channel=0 note=69 velocity=64 time=0
note_on channel=0 note=72 velocity=110 time=0
note_off channel=0 note=72 velocity=64 time=24
note_on channel=0 note=71 velocity=100 time=0
note_off channel=0 note=71 velocity=64 time=24
note_on channel=0 note=72 velocity=114 time=0
note_off channel=0 note=72 velocity=64 time=24
note_on channel=0 note=71 velocity=121 time=0
note_on channel=0 note=62 velocity=121 time=0
note_off channel=0 note=71 velocity=64 time=24
note_off channel=0 note=62 velocity=64 time=0
note_on channel=0 note=67 velocity=125 time=0
note_off channel=0 note=67 velocity=64 time=24
note_on channel=0 note=62 velocity=105 time=0
note_off channel=0 note=62 velocity=64 time=24
note_on channel=0 note=72 velocity=118 time=0
note_on channel=0 note=62 velocity=118 time=0
note_off channel=0 note=72 velocity=64 time=45
note_off channel=0 note=62 velocity=64 time=0
note_on channel=0 note=62 velocity=97 time=3
note_off channel=0 note=62 velocity=64 time=21
note_on channel=0 note=74 velocity=124 time=3
note_on channel=0 note=71 velocity=124 time=0
note_off channel=0 note=74 velocity=64 time=21
note_off channel=0 note=71 velocity=64 time=0
note_on channel=0 note=67 velocity=96 time=3
note_off channel=0 note=67 velocity=64 time=21
note_on channel=0 note=76 velocity=124 time=3
note_off channel=0 note=76 velocity=64 time=24
note_on channel=0 note=72 velocity=113 time=0
note_off channel=0 note=72 velocity=64 time=24
note_on channel=0 note=67 velocity=105 time=0
note_off channel=0 note=67 velocity=64 time=24
note_on channel=0 note=67 velocity=99 time=0
note_off channel=0 note=67 velocity=64 time=24
note_on channel=0 note=76 velocity=122 time=0
note_on channel=0 note=67 velocity=122 time=0
note_off channel=0 note=76 velocity=64 time=24
note_off channel=0 note=67 velocity=64 time=0
note_on channel=0 note=67 velocity=101 time=0
note_off channel=0 note=67 velocity=64 time=24
note_on channel=0 note=77 velocity=123 time=0
note_off channel=0 note=77 velocity=64 time=24
note_on channel=0 note=67 velocity=107 time=0
note_off channel=0 note=67 velocity=64 time=24
note_on channel=0 note=71 velocity=123 time=0
note_on channel=0 note=79 velocity=123 time=0
note_off channel=0 note=71 velocity=64 time=24
note_off channel=0 note=79 velocity=64 time=0
note_on channel=0 note=69 velocity=103 time=0
note_off channel=0 note=69 velocity=64 time=24
note_on channel=0 note=72 velocity=127 time=0
note_on channel=0 note=81 velocity=120 time=0
note_off channel=0 note=72 velocity=64 time=24
note_off channel=0 note=81 velocity=64 time=0
note_on channel=0 note=67 velocity=104 time=0
note_off channel=0 note=67 velocity=64 time=24
note_on channel=0 note=79 velocity=127 time=0
note_on channel=0 note=71 velocity=127 time=0
note_off channel=0 note=79 velocity=64 time=21
note_off channel=0 note=71 velocity=64 time=0
note_on channel=0 note=67 velocity=103 time=3
note_off channel=0 note=67 velocity=64 time=21
note_on channel=0 note=77 velocity=122 time=3
note_on channel=0 note=71 velocity=112 time=0
note_on channel=0 note=67 velocity=104 time=0
note_off channel=0 note=77 velocity=64 time=21
note_off channel=0 note=71 velocity=64 time=0
note_off channel=0 note=67 velocity=64 time=0
note_on channel=0 note=64 velocity=93 time=3
note_off channel=0 note=64 velocity=64 time=21
note_on channel=0 note=72 velocity=126 time=3
note_on channel=0 note=71 velocity=126 time=0
note_on channel=0 note=76 velocity=127 time=2
note_off channel=0 note=72 velocity=64 time=22
note_off channel=0 note=71 velocity=64 time=0
note_on channel=0 note=64 velocity=105 time=0
note_off channel=0 note=76 velocity=64 time=2
note_off channel=0 note=64 velocity=64 time=25
note_on channel=0 note=64 velocity=99 time=21
note_off channel=0 note=64 velocity=64 time=24
note_on channel=0 note=64 velocity=118 time=0
note_on channel=0 note=72 velocity=127 time=2
note_off channel=0 note=64 velocity=64 time=22
note_on channel=0 note=72 velocity=127 time=0
note_on channel=0 note=64 velocity=110 time=0
note_off channel=0 note=72 velocity=64 time=2
note_off channel=0 note=72 velocity=64 time=22
note_off channel=0 note=64 velocity=64 time=0
note_on channel=0 note=74 velocity=127 time=0
note_on channel=0 note=64 velocity=101 time=0
note_off channel=0 note=74 velocity=64 time=24
note_off channel=0 note=64 velocity=64 time=0
note_on channel=0 note=64 velocity=99 time=0
note_off channel=0 note=64 velocity=64 time=24
note_on channel=0 note=76 velocity=125 time=0
note_on channel=0 note=67 velocity=125 time=0
note_off channel=0 note=76 velocity=64 time=24
note_off channel=0 note=67 velocity=64 time=0
note_on channel=0 note=64 velocity=94 time=0
note_off channel=0 note=64 velocity=64 time=22
note_on channel=0 note=77 velocity=123 time=2
note_on channel=0 note=64 velocity=100 time=0
note_off channel=0 note=77 velocity=64 time=24
note_off channel=0 note=64 velocity=64 time=0
note_on channel=0 note=64 velocity=100 time=0
note_off channel=0 note=64 velocity=64 time=24
note_on channel=0 note=76 velocity=118 time=0
note_on channel=0 note=70 velocity=127 time=0
note_off channel=0 note=76 velocity=64 time=21
note_off channel=0 note=70 velocity=64 time=0
note_on channel=0 note=64 velocity=76 time=3
note_off channel=0 note=64 velocity=64 time=21
note_on channel=0 note=74 velocity=91 time=3
note_off channel=0 note=74 velocity=64 time=21
note_on channel=0 note=65 velocity=73 time=3
note_off channel=0 note=65 velocity=64 time=21
note_on channel=0 note=74 velocity=80 time=3
note_on channel=0 note=65 velocity=80 time=0
note_off channel=0 note=74 velocity=64 time=21
note_off channel=0 note=65 velocity=64 time=0
note_on channel=0 note=72 velocity=80 time=3
note_on channel=0 note=65 velocity=80 time=0
note_off channel=0 note=72 velocity=64 time=43
note_off channel=0 note=65 velocity=64 time=0
note_on channel=0 note=72 velocity=80 time=5
note_on channel=0 note=65 velocity=80 time=0
note_off channel=0 note=72 velocity=64 time=45
note_off channel=0 note=65 velocity=64 time=0
note_on channel=0 note=72 velocity=80 time=3
note_on channel=0 note=65 velocity=80 time=0
note_off channel=0 note=72 velocity=64 time=45
note_off channel=0 note=65 velocity=64 time=0
note_on channel=0 note=74 velocity=80 time=3
note_on channel=0 note=65 velocity=80 time=0
note_off channel=0 note=74 velocity=64 time=21
note_off channel=0 note=65 velocity=64 time=0
note_on channel=0 note=74 velocity=80 time=3
note_on channel=0 note=64 velocity=80 time=0
note_off channel=0 note=74 velocity=64 time=21
note_off channel=0 note=64 velocity=64 time=0
note_on channel=0 note=72 velocity=80 time=3
note_on channel=0 note=64 velocity=80 time=0
note_off channel=0 note=72 velocity=64 time=43
note_off channel=0 note=64 velocity=64 time=0
note_on channel=0 note=72 velocity=80 time=5
note_on channel=0 note=64 velocity=80 time=0
note_off channel=0 note=72 velocity=64 time=110
note_off channel=0 note=64 velocity=64 time=0
note_on channel=0 note=72 velocity=80 time=10
note_on channel=0 note=65 velocity=80 time=0
note_off channel=0 note=72 velocity=64 time=21
note_off channel=0 note=65 velocity=64 time=0
note_on channel=0 note=74 velocity=80 time=3
note_on channel=0 note=65 velocity=80 time=0
note_off channel=0 note=74 velocity=64 time=21
note_off channel=0 note=65 velocity=64 time=0
note_on channel=0 note=74 velocity=80 time=3
note_on channel=0 note=65 velocity=80 time=0
note_off channel=0 note=74 velocity=64 time=21
note_off channel=0 note=65 velocity=64 time=0
note_on channel=0 note=72 velocity=80 time=3
note_on channel=0 note=65 velocity=80 time=0
note_off channel=0 note=72 velocity=64 time=21
note_off channel=0 note=65 velocity=64 time=0
note_on channel=0 note=65 velocity=80 time=3
note_on channel=0 note=74 velocity=80 time=0
note_on channel=0 note=67 velocity=80 time=85
note_off channel=0 note=65 velocity=64 time=1
note_off channel=0 note=74 velocity=64 time=0
note_off channel=0 note=67 velocity=64 time=4
note_on channel=0 note=72 velocity=80 time=0
note_off channel=0 note=72 velocity=64 time=6
note_on channel=0 note=67 velocity=80 time=0
note_on channel=0 note=74 velocity=80 time=0
note_off channel=0 note=67 velocity=64 time=21
note_off channel=0 note=74 velocity=64 time=0
note_on channel=0 note=67 velocity=80 time=3
note_on channel=0 note=76 velocity=80 time=0
note_off channel=0 note=67 velocity=64 time=21
note_off channel=0 note=76 velocity=64 time=0
note_on channel=0 note=67 velocity=80 time=3
note_on channel=0 note=76 velocity=80 time=0
note_off channel=0 note=67 velocity=64 time=21
note_off channel=0 note=76 velocity=64 time=0
note_on channel=0 note=67 velocity=80 time=3
note_on channel=0 note=74 velocity=80 time=0
note_off channel=0 note=67 velocity=64 time=21
note_off channel=0 note=74 velocity=64 time=0
note_on channel=0 note=67 velocity=80 time=3
note_on channel=0 note=76 velocity=80 time=0
note_off channel=0 note=67 velocity=64 time=43
note_off channel=0 note=76 velocity=64 time=0
note_on channel=0 note=74 velocity=80 time=5
note_off channel=0 note=74 velocity=64 time=45
note_on channel=0 note=76 velocity=127 time=3
note_off channel=0 note=76 velocity=64 time=12
note_on channel=0 note=76 velocity=110 time=8
note_off channel=0 note=76 velocity=64 time=2
note_on channel=0 note=76 velocity=90 time=11
note_off channel=0 note=76 velocity=64 time=12
note_on channel=0 note=76 velocity=80 time=3
note_on channel=0 note=76 velocity=80 time=0
note_off channel=0 note=76 velocity=64 time=12
note_on channel=0 note=76 velocity=50 time=1
note_off channel=0 note=76 velocity=64 time=8
note_on channel=0 note=76 velocity=50 time=3
note_off channel=0 note=76 velocity=64 time=1
note_off channel=0 note=76 velocity=64 time=11
note_on channel=0 note=76 velocity=50 time=0
note_on channel=0 note=76 velocity=50 time=12
note_off channel=0 note=76 velocity=64 time=1
note_off channel=0 note=76 velocity=64 time=11
note_on channel=0 note=76 velocity=60 time=0
note_off channel=0 note=76 velocity=64 time=12
note_on channel=0 note=76 velocity=50 time=0
note_off channel=0 note=76 velocity=64 time=12
note_on channel=0 note=76 velocity=50 time=0
note_off channel=0 note=76 velocity=64 time=12
note_on channel=0 note=76 velocity=70 time=0
note_off channel=0 note=76 velocity=64 time=12
note_on channel=0 note=76 velocity=90 time=0
note_off channel=0 note=76 velocity=64 time=12
note_on channel=0 note=76 velocity=60 time=0
note_off channel=0 note=76 velocity=64 time=12
note_on channel=0 note=76 velocity=50 time=0
note_off channel=0 note=76 velocity=64 time=12
note_on channel=0 note=76 velocity=50 time=0
note_off channel=0 note=76 velocity=64 time=12
note_on channel=0 note=74 velocity=40 time=0
note_off channel=0 note=74 velocity=64 time=12
note_on channel=0 note=74 velocity=45 time=0
note_off channel=0 note=74 velocity=64 time=12
note_on channel=0 note=74 velocity=50 time=0
note_off channel=0 note=74 velocity=64 time=12
note_on channel=0 note=74 velocity=60 time=0
note_off channel=0 note=74 velocity=64 time=12
note_on channel=0 note=74 velocity=80 time=0
note_off channel=0 note=74 velocity=64 time=12
note_on channel=0 note=74 velocity=85 time=0
note_off channel=0 note=74 velocity=64 time=12
note_on channel=0 note=74 velocity=85 time=0
note_on channel=0 note=74 velocity=70 time=12
note_off channel=0 note=74 velocity=64 time=1
note_on channel=0 note=74 velocity=60 time=11
note_off channel=0 note=74 velocity=64 time=1
note_on channel=0 note=74 velocity=70 time=11
note_off channel=0 note=74 velocity=64 time=1
note_on channel=0 note=74 velocity=60 time=11
note_off channel=0 note=74 velocity=64 time=1
note_on channel=0 note=74 velocity=70 time=11
note_off channel=0 note=74 velocity=64 time=1
note_on channel=0 note=74 velocity=50 time=11
note_off channel=0 note=74 velocity=64 time=1
note_on channel=0 note=74 velocity=50 time=11
note_off channel=0 note=74 velocity=64 time=1
note_on channel=0 note=74 velocity=40 time=11
note_off channel=0 note=74 velocity=64 time=1
note_on channel=0 note=74 velocity=50 time=11
note_off channel=0 note=74 velocity=64 time=1
note_on channel=0 note=72 velocity=50 time=11
note_off channel=0 note=74 velocity=64 time=1
note_on channel=0 note=72 velocity=40 time=11
note_off channel=0 note=72 velocity=64 time=1
note_on channel=0 note=72 velocity=40 time=11
note_off channel=0 note=72 velocity=64 time=1
note_on channel=0 note=72 velocity=40 time=11
note_off channel=0 note=72 velocity=64 time=1
note_on channel=0 note=72 velocity=40 time=11
note_off channel=0 note=72 velocity=64 time=1
note_on channel=0 note=72 velocity=40 time=11
note_off channel=0 note=72 velocity=64 time=1
note_on channel=0 note=72 velocity=60 time=11
note_off channel=0 note=72 velocity=64 time=1
note_on channel=0 note=72 velocity=70 time=11
note_off channel=0 note=72 velocity=64 time=1
note_on channel=0 note=72 velocity=80 time=11
note_off channel=0 note=72 velocity=64 time=1
note_on channel=0 note=72 velocity=80 time=11
note_off channel=0 note=72 velocity=64 time=1
note_on channel=0 note=72 velocity=80 time=11
note_off channel=0 note=72 velocity=64 time=1
note_on channel=0 note=72 velocity=70 time=11
note_off channel=0 note=72 velocity=64 time=1
note_on channel=0 note=72 velocity=60 time=11
note_off channel=0 note=72 velocity=64 time=1
note_on channel=0 note=72 velocity=50 time=11
note_off channel=0 note=72 velocity=64 time=1
note_on channel=0 note=72 velocity=50 time=11
note_off channel=0 note=72 velocity=64 time=1
note_on channel=0 note=71 velocity=60 time=11
note_off channel=0 note=72 velocity=64 time=1
note_on channel=0 note=72 velocity=60 time=11
note_off channel=0 note=71 velocity=64 time=1
note_on channel=0 note=71 velocity=70 time=11
note_off channel=0 note=71 velocity=64 time=1
note_on channel=0 note=71 velocity=80 time=11
note_off channel=0 note=71 velocity=64 time=1
note_on channel=0 note=71 velocity=80 time=11
note_off channel=0 note=71 velocity=64 time=1
note_on channel=0 note=71 velocity=70 time=11
note_off channel=0 note=71 velocity=64 time=1
note_on channel=0 note=71 velocity=70 time=11
note_off channel=0 note=71 velocity=64 time=1
note_on channel=0 note=71 velocity=70 time=11
note_off channel=0 note=71 velocity=64 time=1
note_on channel=0 note=71 velocity=63 time=11
note_off channel=0 note=71 velocity=64 time=1
note_on channel=0 note=71 velocity=70 time=11
note_off channel=0 note=71 velocity=64 time=1
note_on channel=0 note=71 velocity=70 time=11
note_off channel=0 note=71 velocity=64 time=1
note_on channel=0 note=71 velocity=62 time=11
note_off channel=0 note=71 velocity=64 time=1
note_on channel=0 note=71 velocity=40 time=11
note_off channel=0 note=71 velocity=64 time=1
note_on channel=0 note=71 velocity=54 time=11
note_off channel=0 note=71 velocity=64 time=1
note_on channel=0 note=71 velocity=50 time=11
note_off channel=0 note=71 velocity=64 time=1
note_on channel=0 note=71 velocity=40 time=11
note_off channel=0 note=71 velocity=64 time=1
note_on channel=0 note=69 velocity=55 time=11
note_off channel=0 note=72 velocity=64 time=1
note_on channel=0 note=69 velocity=65 time=11
note_off channel=0 note=69 velocity=64 time=1
note_on channel=0 note=69 velocity=60 time=11
note_off channel=0 note=69 velocity=64 time=1
note_on channel=0 note=69 velocity=55 time=11
note_off channel=0 note=69 velocity=64 time=1
note_on channel=0 note=69 velocity=45 time=11
note_off channel=0 note=69 velocity=64 time=1
note_on channel=0 note=69 velocity=40 time=11
note_off channel=0 note=69 velocity=64 time=1
note_on channel=0 note=69 velocity=60 time=11
note_off channel=0 note=69 velocity=64 time=1
note_on channel=0 note=69 velocity=70 time=11
note_off channel=0 note=69 velocity=64 time=1
note_on channel=0 note=69 velocity=60 time=11
note_off channel=0 note=69 velocity=64 time=1
note_on channel=0 note=69 velocity=40 time=11
note_off channel=0 note=69 velocity=64 time=1
note_on channel=0 note=69 velocity=40 time=11
note_off channel=0 note=69 velocity=64 time=1
note_on channel=0 note=69 velocity=50 time=11
note_off channel=0 note=69 velocity=64 time=1
note_on channel=0 note=69 velocity=60 time=11
note_off channel=0 note=69 velocity=64 time=1
note_on channel=0 note=69 velocity=70 time=11
note_off channel=0 note=69 velocity=64 time=1
note_on channel=0 note=69 velocity=70 time=11
note_off channel=0 note=69 velocity=64 time=1
note_on channel=0 note=69 velocity=60 time=11
note_off channel=0 note=69 velocity=64 time=1
note_on channel=0 note=67 velocity=70 time=11
note_off channel=0 note=69 velocity=64 time=1
note_on channel=0 note=69 velocity=65 time=11
note_off channel=0 note=67 velocity=64 time=1
note_on channel=0 note=67 velocity=65 time=11
note_off channel=0 note=67 velocity=64 time=1
note_on channel=0 note=67 velocity=60 time=11
note_off channel=0 note=67 velocity=64 time=1
note_on channel=0 note=67 velocity=45 time=11
note_off channel=0 note=67 velocity=64 time=1
note_on channel=0 note=67 velocity=60 time=11
note_off channel=0 note=67 velocity=64 time=1
note_on channel=0 note=67 velocity=50 time=11
note_off channel=0 note=67 velocity=64 time=1
note_on channel=0 note=67 velocity=50 time=11
note_off channel=0 note=67 velocity=64 time=1
note_on channel=0 note=67 velocity=50 time=11
note_off channel=0 note=67 velocity=64 time=1
note_on channel=0 note=67 velocity=50 time=11
note_off channel=0 note=67 velocity=64 time=1
note_on channel=0 note=67 velocity=50 time=11
note_off channel=0 note=67 velocity=64 time=1
note_on channel=0 note=67 velocity=55 time=11
note_off channel=0 note=67 velocity=64 time=1
note_on channel=0 note=67 velocity=60 time=11
note_off channel=0 note=67 velocity=64 time=1
note_on channel=0 note=67 velocity=34 time=11
note_off channel=0 note=67 velocity=64 time=1
note_on channel=0 note=67 velocity=55 time=11
note_off channel=0 note=67 velocity=64 time=1
note_on channel=0 note=67 velocity=50 time=11
note_off channel=0 note=67 velocity=64 time=1
note_on channel=0 note=69 velocity=65 time=11
note_off channel=0 note=69 velocity=64 time=1
note_on channel=0 note=69 velocity=65 time=11
note_off channel=0 note=69 velocity=64 time=1
note_on channel=0 note=69 velocity=60 time=11
note_off channel=0 note=69 velocity=64 time=1
note_on channel=0 note=69 velocity=45 time=11
note_off channel=0 note=69 velocity=64 time=1
note_on channel=0 note=69 velocity=60 time=11
note_off channel=0 note=69 velocity=64 time=1
note_on channel=0 note=69 velocity=50 time=11
note_off channel=0 note=69 velocity=64 time=1
note_on channel=0 note=69 velocity=50 time=11
note_off channel=0 note=69 velocity=64 time=1
note_on channel=0 note=69 velocity=50 time=11
note_off channel=0 note=69 velocity=64 time=1
note_on channel=0 note=69 velocity=50 time=11
note_off channel=0 note=69 velocity=64 time=1
note_on channel=0 note=69 velocity=50 time=11
note_off channel=0 note=69 velocity=64 time=1
note_on channel=0 note=69 velocity=55 time=11
note_off channel=0 note=69 velocity=64 time=1
note_on channel=0 note=69 velocity=60 time=11
note_off channel=0 note=69 velocity=64 time=1
note_on channel=0 note=69 velocity=34 time=11
note_off channel=0 note=69 velocity=64 time=1
note_on channel=0 note=69 velocity=55 time=11
note_off channel=0 note=69 velocity=64 time=1
note_on channel=0 note=69 velocity=60 time=11
note_off channel=0 note=69 velocity=64 time=1
note_off channel=0 note=69 velocity=64 time=8
note_on channel=0 note=69 velocity=50 time=3
note_off channel=0 note=69 velocity=64 time=9
note_on channel=0 note=69 velocity=50 time=3
note_off channel=0 note=69 velocity=64 time=9
note_on channel=0 note=71 velocity=60 time=3
note_off channel=0 note=71 velocity=64 time=9
note_on channel=0 note=71 velocity=60 time=3
note_off channel=0 note=71 velocity=64 time=9
note_on channel=0 note=71 velocity=60 time=3
note_off channel=0 note=71 velocity=64 time=9
note_on channel=0 note=71 velocity=60 time=3
note_off channel=0 note=71 velocity=64 time=9
note_on channel=0 note=71 velocity=60 time=3
note_off channel=0 note=71 velocity=64 time=9
note_on channel=0 note=71 velocity=60 time=3
note_off channel=0 note=71 velocity=64 time=9
note_on channel=0 note=71 velocity=60 time=3
note_off channel=0 note=71 velocity=64 time=9
note_on channel=0 note=71 velocity=60 time=3
note_off channel=0 note=71 velocity=64 time=9
note_on channel=0 note=71 velocity=60 time=3
note_off channel=0 note=71 velocity=64 time=9
note_on channel=0 note=71 velocity=60 time=3
note_off channel=0 note=71 velocity=64 time=9
note_on channel=0 note=71 velocity=60 time=3
note_off channel=0 note=71 velocity=64 time=9
note_on channel=0 note=71 velocity=60 time=3
note_off channel=0 note=71 velocity=64 time=12
note_on channel=0 note=71 velocity=70 time=0
note_off channel=0 note=71 velocity=64 time=12
note_on channel=0 note=76 velocity=70 time=0
note_off channel=0 note=76 velocity=64 time=12
note_on channel=0 note=76 velocity=70 time=0
note_off channel=0 note=76 velocity=64 time=12
note_on channel=0 note=76 velocity=80 time=0
note_off channel=0 note=76 velocity=64 time=12
note_on channel=0 note=76 velocity=70 time=0
note_off channel=0 note=76 velocity=64 time=12
note_on channel=0 note=76 velocity=60 time=0
note_off channel=0 note=76 velocity=64 time=12
note_on channel=0 note=76 velocity=50 time=0
note_off channel=0 note=76 velocity=64 time=12
note_on channel=0 note=76 velocity=80 time=0
note_off channel=0 note=76 velocity=64 time=12
note_on channel=0 note=76 velocity=50 time=0
note_off channel=0 note=76 velocity=64 time=12
note_on channel=0 note=76 velocity=55 time=0
note_off channel=0 note=76 velocity=64 time=12
note_on channel=0 note=76 velocity=40 time=0
note_off channel=0 note=76 velocity=64 time=12
note_on channel=0 note=76 velocity=40 time=0
note_off channel=0 note=76 velocity=64 time=12
note_on channel=0 note=76 velocity=40 time=0
note_off channel=0 note=76 velocity=64 time=12
note_on channel=0 note=76 velocity=40 time=0
note_off channel=0 note=76 velocity=64 time=12
note_on channel=0 note=76 velocity=40 time=0
note_off channel=0 note=76 velocity=64 time=12
note_on channel=0 note=77 velocity=50 time=0
note_off channel=0 note=77 velocity=64 time=12
note_on channel=0 note=76 velocity=70 time=0
note_off channel=0 note=76 velocity=64 time=12
note_on channel=0 note=77 velocity=80 time=0
note_off channel=0 note=77 velocity=64 time=12
note_on channel=0 note=77 velocity=90 time=0
note_off channel=0 note=77 velocity=64 time=12
note_on channel=0 note=77 velocity=75 time=0
note_off channel=0 note=77 velocity=64 time=12
note_on channel=0 note=77 velocity=55 time=0
note_off channel=0 note=77 velocity=64 time=12
note_on channel=0 note=74 velocity=55 time=0
note_off channel=0 note=74 velocity=64 time=12
note_on channel=0 note=74 velocity=55 time=0
note_off channel=0 note=74 velocity=64 time=12
note_on channel=0 note=74 velocity=55 time=0
note_off channel=0 note=74 velocity=64 time=12
note_on channel=0 note=74 velocity=55 time=0
note_off channel=0 note=74 velocity=64 time=12
note_on channel=0 note=74 velocity=55 time=0
note_off channel=0 note=74 velocity=64 time=12
note_on channel=0 note=74 velocity=55 time=0
note_off channel=0 note=74 velocity=64 time=12
note_on channel=0 note=74 velocity=55 time=0
note_off channel=0 note=74 velocity=64 time=12
note_on channel=0 note=74 velocity=55 time=0
note_off channel=0 note=74 velocity=64 time=12
note_on channel=0 note=74 velocity=55 time=0
note_off channel=0 note=74 velocity=64 time=12
note_on channel=0 note=74 velocity=55 time=0
note_off channel=0 note=74 velocity=64 time=12
note_on channel=0 note=76 velocity=55 time=0
note_off channel=0 note=76 velocity=64 time=12
note_on channel=0 note=76 velocity=70 time=0
note_off channel=0 note=76 velocity=64 time=12
note_on channel=0 note=76 velocity=80 time=0
note_off channel=0 note=76 velocity=64 time=12
note_on channel=0 note=76 velocity=90 time=0
note_off channel=0 note=76 velocity=64 time=12
note_on channel=0 note=72 velocity=80 time=0
note_on channel=0 note=72 velocity=80 time=0
note_off channel=0 note=72 velocity=64 time=12
note_off channel=0 note=72 velocity=64 time=9
note_on channel=0 note=72 velocity=60 time=3
note_off channel=0 note=72 velocity=64 time=12
note_on channel=0 note=72 velocity=65 time=0
note_off channel=0 note=72 velocity=64 time=12
note_on channel=0 note=72 velocity=65 time=0
note_off channel=0 note=72 velocity=64 time=12
note_on channel=0 note=72 velocity=80 time=0
note_off channel=0 note=72 velocity=64 time=12
note_on channel=0 note=72 velocity=90 time=0
note_off channel=0 note=72 velocity=64 time=12
note_on channel=0 note=72 velocity=80 time=0
note_off channel=0 note=72 velocity=64 time=12
note_on channel=0 note=72 velocity=50 time=0
note_off channel=0 note=72 velocity=64 time=12
note_on channel=0 note=72 velocity=50 time=0
note_off channel=0 note=72 velocity=64 time=12
note_on channel=0 note=72 velocity=50 time=0
note_off channel=0 note=72 velocity=64 time=12
note_on channel=0 note=72 velocity=50 time=0
note_off channel=0 note=72 velocity=64 time=12
note_on channel=0 note=74 velocity=55 time=0
note_off channel=0 note=74 velocity=64 time=12
note_on channel=0 note=74 velocity=70 time=0
note_off channel=0 note=74 velocity=64 time=12
note_on channel=0 note=74 velocity=80 time=0
note_off channel=0 note=74 velocity=64 time=12
note_on channel=0 note=74 velocity=70 time=0
note_off channel=0 note=74 velocity=64 time=12
note_on channel=0 note=72 velocity=65 time=0
note_off channel=0 note=72 velocity=64 time=12
note_on channel=0 note=71 velocity=55 time=0
note_off channel=0 note=71 velocity=64 time=12
note_on channel=0 note=71 velocity=65 time=0
note_off channel=0 note=71 velocity=64 time=12
note_on channel=0 note=71 velocity=70 time=0
note_off channel=0 note=71 velocity=64 time=12
note_on channel=0 note=71 velocity=80 time=0
note_off channel=0 note=71 velocity=64 time=12
note_on channel=0 note=71 velocity=90 time=0
note_off channel=0 note=71 velocity=64 time=12
note_on channel=0 note=71 velocity=70 time=0
note_off channel=0 note=71 velocity=64 time=12
note_on channel=0 note=71 velocity=70 time=0
note_off channel=0 note=71 velocity=64 time=12
note_on channel=0 note=71 velocity=55 time=0
note_off channel=0 note=71 velocity=64 time=12
note_on channel=0 note=71 velocity=55 time=0
note_off channel=0 note=71 velocity=64 time=12
note_on channel=0 note=71 velocity=55 time=0
note_off channel=0 note=71 velocity=64 time=12
note_on channel=0 note=71 velocity=65 time=0
note_off channel=0 note=71 velocity=64 time=12
note_on channel=0 note=72 velocity=65 time=0
note_off channel=0 note=72 velocity=64 time=12
note_on channel=0 note=72 velocity=55 time=0
note_off channel=0 note=72 velocity=64 time=12
note_on channel=0 note=72 velocity=50 time=0
note_off channel=0 note=72 velocity=64 time=12
note_on channel=0 note=71 velocity=45 time=0
note_off channel=0 note=71 velocity=64 time=12
note_on channel=0 note=71 velocity=40 time=0
note_off channel=0 note=71 velocity=64 time=12
note_on channel=0 note=69 velocity=55 time=0
note_off channel=0 note=69 velocity=64 time=12
note_on channel=0 note=69 velocity=65 time=0
note_off channel=0 note=69 velocity=64 time=12
note_on channel=0 note=69 velocity=70 time=0
note_off channel=0 note=69 velocity=64 time=12
note_on channel=0 note=69 velocity=80 time=0
note_off channel=0 note=69 velocity=64 time=12
note_on channel=0 note=69 velocity=80 time=0
note_off channel=0 note=69 velocity=64 time=12
note_on channel=0 note=69 velocity=70 time=0
note_off channel=0 note=69 velocity=64 time=12
note_on channel=0 note=69 velocity=65 time=0
note_off channel=0 note=69 velocity=64 time=12
note_on channel=0 note=69 velocity=65 time=0
note_off channel=0 note=69 velocity=64 time=12
note_on channel=0 note=69 velocity=65 time=0
note_off channel=0 note=69 velocity=64 time=12
note_on channel=0 note=69 velocity=65 time=0
note_off channel=0 note=69 velocity=64 time=12
note_on channel=0 note=69 velocity=65 time=0
note_off channel=0 note=69 velocity=64 time=12
note_on channel=0 note=69 velocity=75 time=0
note_off channel=0 note=69 velocity=64 time=12
note_on channel=0 note=69 velocity=70 time=0
note_off channel=0 note=69 velocity=64 time=12
note_on channel=0 note=69 velocity=60 time=0
note_off channel=0 note=69 velocity=64 time=12
note_on channel=0 note=69 velocity=75 time=0
note_off channel=0 note=69 velocity=64 time=12
note_on channel=0 note=69 velocity=75 time=0
note_off channel=0 note=69 velocity=64 time=12
note_on channel=0 note=67 velocity=55 time=0
note_off channel=0 note=67 velocity=64 time=12
note_on channel=0 note=67 velocity=60 time=0
note_off channel=0 note=67 velocity=64 time=12
note_on channel=0 note=67 velocity=65 time=0
note_off channel=0 note=67 velocity=64 time=12
note_on channel=0 note=67 velocity=5 time=0
note_off channel=0 note=67 velocity=64 time=12
note_on channel=0 note=67 velocity=55 time=0
note_off channel=0 note=67 velocity=64 time=12
note_on channel=0 note=67 velocity=50 time=0
note_off channel=0 note=67 velocity=64 time=12
note_on channel=0 note=67 velocity=65 time=0
note_off channel=0 note=67 velocity=64 time=12
note_on channel=0 note=67 velocity=55 time=0
note_off channel=0 note=67 velocity=64 time=12
note_on channel=0 note=67 velocity=65 time=0
note_off channel=0 note=67 velocity=64 time=12
note_on channel=0 note=67 velocity=45 time=0
note_off channel=0 note=67 velocity=64 time=12
note_on channel=0 note=67 velocity=40 time=0
note_off channel=0 note=67 velocity=64 time=12
note_on channel=0 note=67 velocity=40 time=0
note_off channel=0 note=67 velocity=64 time=12
note_on channel=0 note=67 velocity=65 time=0
note_off channel=0 note=67 velocity=64 time=12
note_on channel=0 note=67 velocity=65 time=0
note_off channel=0 note=67 velocity=64 time=12
note_on channel=0 note=69 velocity=75 time=0
note_off channel=0 note=69 velocity=64 time=12
note_on channel=0 note=69 velocity=40 time=0
note_off channel=0 note=69 velocity=64 time=12
note_on channel=0 note=69 velocity=55 time=0
note_off channel=0 note=69 velocity=64 time=12
note_on channel=0 note=69 velocity=65 time=0
note_off channel=0 note=69 velocity=64 time=12
note_on channel=0 note=69 velocity=70 time=0
note_off channel=0 note=69 velocity=64 time=12
note_on channel=0 note=69 velocity=80 time=0
note_off channel=0 note=69 velocity=64 time=12
note_on channel=0 note=69 velocity=80 time=0
note_off channel=0 note=69 velocity=64 time=12
note_on channel=0 note=69 velocity=70 time=0
note_off channel=0 note=69 velocity=64 time=12
note_on channel=0 note=69 velocity=65 time=0
note_off channel=0 note=69 velocity=64 time=12
note_on channel=0 note=69 velocity=65 time=0
note_off channel=0 note=69 velocity=64 time=12
note_on channel=0 note=69 velocity=65 time=0
note_off channel=0 note=69 velocity=64 time=12
note_on channel=0 note=69 velocity=65 time=0
note_off channel=0 note=69 velocity=64 time=12
note_on channel=0 note=69 velocity=65 time=0
note_off channel=0 note=69 velocity=64 time=12
note_on channel=0 note=69 velocity=75 time=0
note_off channel=0 note=69 velocity=64 time=12
note_on channel=0 note=69 velocity=70 time=0
note_off channel=0 note=69 velocity=64 time=12
note_on channel=0 note=69 velocity=60 time=0
note_off channel=0 note=69 velocity=64 time=12
note_on channel=0 note=69 velocity=75 time=0
note_off channel=0 note=69 velocity=64 time=12
note_on channel=0 note=71 velocity=75 time=0
note_off channel=0 note=71 velocity=64 time=12
note_on channel=0 note=71 velocity=55 time=0
note_off channel=0 note=71 velocity=64 time=12
note_on channel=0 note=71 velocity=60 time=0
note_off channel=0 note=71 velocity=64 time=12
note_on channel=0 note=71 velocity=65 time=0
note_off channel=0 note=71 velocity=64 time=12
note_on channel=0 note=71 velocity=5 time=0
note_off channel=0 note=71 velocity=64 time=12
note_on channel=0 note=71 velocity=55 time=0
note_off channel=0 note=71 velocity=64 time=12
note_on channel=0 note=71 velocity=50 time=0
note_off channel=0 note=71 velocity=64 time=12
note_on channel=0 note=71 velocity=65 time=0
note_off channel=0 note=71 velocity=64 time=12
note_on channel=0 note=71 velocity=55 time=0
note_on channel=0 note=65 velocity=80 time=0
note_on channel=0 note=65 velocity=80 time=0
note_off channel=0 note=71 velocity=64 time=12
note_on channel=0 note=71 velocity=65 time=0
note_off channel=0 note=65 velocity=64 time=9
note_off channel=0 note=65 velocity=64 time=0
note_off channel=0 note=71 velocity=64 time=3
note_on channel=0 note=71 velocity=45 time=0
note_on channel=0 note=65 velocity=80 time=0
note_on channel=0 note=65 velocity=80 time=0
note_off channel=0 note=71 velocity=64 time=12
note_on channel=0 note=71 velocity=40 time=0
note_off channel=0 note=65 velocity=64 time=9
note_off channel=0 note=65 velocity=64 time=0
note_off channel=0 note=71 velocity=64 time=3
note_on channel=0 note=71 velocity=40 time=0
note_on channel=0 note=65 velocity=80 time=0
note_on channel=0 note=65 velocity=80 time=0
note_off channel=0 note=71 velocity=64 time=12
note_on channel=0 note=71 velocity=65 time=0
note_off channel=0 note=65 velocity=64 time=9
note_off channel=0 note=65 velocity=64 time=0
note_off channel=0 note=71 velocity=64 time=3
note_on channel=0 note=71 velocity=65 time=0
note_on channel=0 note=65 velocity=80 time=0
note_on channel=0 note=65 velocity=80 time=0
note_off channel=0 note=71 velocity=64 time=12
note_on channel=0 note=71 velocity=75 time=0
note_off channel=0 note=65 velocity=64 time=9
note_off channel=0 note=65 velocity=64 time=0
note_off channel=0 note=71 velocity=64 time=3
note_on channel=0 note=64 velocity=80 time=192
note_on channel=0 note=72 velocity=80 time=0
note_off channel=0 note=64 velocity=64 time=537
note_off channel=0 note=72 velocity=64 time=0
<meta message end_of_track time=0>

'''